<?xml version="1.0" encoding="UTF-8"?>
<svg width="186px" height="28px" viewBox="0 0 186 28" version="1.1" xmlns="http://www.w3.org/2000/svg" xmlns:xlink="http://www.w3.org/1999/xlink">
    <!-- Generator: Sketch 42 (36781) - http://www.bohemiancoding.com/sketch -->
    <title>Page 1</title>
    <desc>Created with Sketch.</desc>
    <defs>
        <polygon id="path-1" points="0.0204444444 18.6666667 21.948 18.6666667 21.948 0.212177778 0.0204444444 0.212177778"></polygon>
        <polygon id="path-3" points="10.7128889 27.1028 10.7128889 0.417022222 0.0749777778 0.417022222 0.0749777778 27.1028"></polygon>
    </defs>
    <g id="Page-1-Copy" stroke="none" stroke-width="1" fill="none" fill-rule="evenodd">
        <g id="About" transform="translate(-999.000000, -1173.000000)">
            <g id="Clients" transform="translate(206.000000, 962.000000)">
                <g id="Academical" transform="translate(793.000000, 211.000000)">
                    <g id="Page-1">
                        <path d="M15.0605333,15.1913778 L11.3365333,3.85048889 L7.61208889,15.3998222 C7.4752,15.8158222 7.40764444,16.0936 7.40764444,16.2322667 C7.40764444,16.4638222 7.58453333,16.5793778 7.93964444,16.5793778 L14.5285333,16.5793778 C15.0743111,16.5793778 15.3472,16.4638222 15.3472,16.2322667 C15.3472,16.1167111 15.3329778,16.0131556 15.3063111,15.9202667 L15.2240889,15.6429333 L15.0605333,15.1913778 Z M14.8969778,17.4136 L7.89875556,17.4136 C7.51608889,17.4136 7.25697778,17.4656 7.12097778,17.5700444 C6.98408889,17.6731556 6.86142222,17.9096 6.75297778,18.2789333 L5.19742222,23.2300444 C5.03386667,23.7616 4.95208889,24.1078222 4.95208889,24.2691556 C4.95208889,24.8922667 5.33386667,25.2033778 6.09786667,25.2033778 L6.6912,25.2033778 L7.36675556,25.2033778 L7.93964444,25.2033778 C8.51253333,25.2033778 8.79875556,25.3487111 8.79875556,25.6411556 C8.79875556,26.0216 8.49875556,26.2122667 7.89875556,26.2122667 C7.51608889,26.2122667 7.20275556,26.1887111 6.95742222,26.1424889 C5.67475556,26.0033778 4.54275556,25.9340444 3.56053333,25.9340444 C3.26008889,25.9340444 2.80364444,25.9807111 2.18986667,26.0731556 C1.57564444,26.1651556 1.11831111,26.2122667 0.818755556,26.2122667 C0.272533333,26.2122667 8.88888889e-05,26.0331556 8.88888889e-05,25.6740444 C8.88888889e-05,25.3607111 0.272533333,25.2033778 0.818755556,25.2033778 L0.982311111,25.2033778 C1.06408889,25.2153778 1.11831111,25.2211556 1.14586667,25.2211556 C1.6912,25.2562667 2.01875556,25.2736 2.12808889,25.2736 C2.83742222,25.2736 3.41031111,24.6011556 3.8472,23.2558222 L10.2312,3.71137778 C10.4769778,2.92337778 10.8720889,2.52915556 11.4183111,2.52915556 C11.9094222,2.52915556 12.2778667,2.88871111 12.5236444,3.60604444 L19.0712,23.1900444 C19.3436444,23.9998222 19.5889778,24.5380444 19.8080889,24.8047111 C20.0258667,25.0709333 20.3258667,25.2033778 20.7085333,25.2033778 L21.1174222,25.2033778 L21.5267556,25.2033778 L22.0178667,25.2033778 C22.5094222,25.2033778 22.7547556,25.3664889 22.7547556,25.6913778 C22.7547556,26.0389333 22.4818667,26.2122667 21.9360889,26.2122667 L21.2400889,26.1424889 C19.8756444,26.0033778 18.8525333,25.9340444 18.1707556,25.9340444 C17.7618667,25.9340444 17.3525333,25.9576 16.9432,26.0033778 C16.7520889,26.0033778 16.4383111,26.0376 16.0018667,26.1078222 C15.5654222,26.1780444 15.2240889,26.2122667 14.9783111,26.2122667 C14.4058667,26.2122667 14.1192,26.0389333 14.1192,25.6913778 C14.1192,25.3664889 14.4192,25.2033778 15.0196444,25.2033778 L15.4289778,25.2033778 L15.9609778,25.2033778 L16.4520889,25.2033778 L16.6565333,25.2033778 C17.5023111,25.2033778 17.9254222,24.9038222 17.9254222,24.3033778 C17.9254222,24.1193778 17.8436444,23.7731556 17.6796444,23.2642667 L16.0427556,18.2442667 C15.9058667,17.8522667 15.7832,17.6158222 15.6743111,17.5340444 C15.5654222,17.4540444 15.3063111,17.4136 14.8969778,17.4136 L14.8969778,17.4136 Z" id="Fill-1" fill="#004355"></path>
                        <path d="M31.4761333,25.7248 C32.7410222,25.7248 33.8063556,25.3741333 34.6730222,24.6723556 C35.5388,23.9701333 36.0405778,23.0314667 36.1783556,21.8568 L36.2570222,21.1319111 C36.2828,20.8323556 36.4543556,20.6825778 36.7712444,20.6825778 C37.1392444,20.6825778 37.3241333,20.8919111 37.3241333,21.3083556 C37.3241333,22.7461333 36.7508,23.9808 35.6050222,25.0123556 C34.4592444,26.0443556 33.0810222,26.5599111 31.4716889,26.5599111 C29.3703556,26.5599111 27.6654667,25.7896889 26.3556889,24.2474667 C25.0463556,22.7052444 24.3916889,20.6950222 24.3916889,18.2136889 C24.3916889,15.6630222 25.0525778,13.5772444 26.3761333,11.9541333 C27.6992444,10.3310222 29.4112444,9.51946667 31.5125778,9.51946667 C33.0943556,9.51946667 34.4245778,9.99413333 35.5028,10.9452444 C36.5801333,11.8959111 37.1192444,13.0785778 37.1192444,14.4928 C37.1192444,16.1612444 36.4912444,16.9959111 35.2365778,16.9959111 C34.2814667,16.9959111 33.8045778,16.5794667 33.8045778,15.7443556 C33.8045778,15.0488 34.1099111,14.7012444 34.7219111,14.7012444 C34.9445778,14.7012444 35.1948,14.7941333 35.4725778,14.9790222 C35.5285778,15.0488 35.5979111,15.0839111 35.6810222,15.0839111 C35.8756889,15.0839111 35.9734667,14.8985778 35.9734667,14.5274667 C35.9734667,13.2985778 35.5539111,12.2959111 34.7152444,11.5185778 C33.8756889,10.7430222 32.8103556,10.3536889 31.5183556,10.3536889 C29.6756889,10.3536889 28.2179111,11.0883556 27.1454667,12.5576889 C26.0730222,14.0270222 25.5374667,15.9985778 25.5374667,18.4736889 C25.5374667,20.6705778 26.0801333,22.4292444 27.1659111,23.7470222 C28.2521333,25.0665778 29.6890222,25.7248 31.4761333,25.7248" id="Fill-3" fill="#004355"></path>
                        <path d="M50.9930667,18.6575556 L50.9930667,16.6486667 C50.2290667,17.3873333 49.1104,17.8264444 47.6370667,17.9646667 L45.9184,18.138 C43.0535111,18.4157778 41.6210667,19.6975556 41.6210667,21.9833333 C41.6210667,23.0926667 41.9895111,23.9931111 42.7259556,24.6864444 C43.4628444,25.3793333 44.4308444,25.7246667 45.6317333,25.7246667 C47.8419556,25.7246667 49.3695111,24.8135556 50.2152889,22.9886667 C50.7335111,21.8802222 50.9930667,20.4366667 50.9930667,18.6575556 M50.9930667,23.7086667 L50.9930667,22.9428889 C50.3104,24.2415556 49.5464,25.1686667 48.7010667,25.7246667 C47.8548444,26.2815556 46.7637333,26.5597778 45.4268444,26.5597778 C43.9264,26.5597778 42.7259556,26.154 41.8255111,25.3428889 C40.9255111,24.5313333 40.4748444,23.4535556 40.4748444,22.1086667 C40.4748444,19.234 42.2415111,17.646 45.7744,17.3437778 C47.8392889,17.1588889 49.1775111,16.8633333 49.7890667,16.4571111 C50.4001778,16.0517778 50.7064,15.2455556 50.7064,14.0402222 C50.7064,12.8811111 50.3379556,11.9775556 49.6015111,11.3282222 C48.8646222,10.6788889 47.8419556,10.3535556 46.5317333,10.3535556 C45.4406222,10.3535556 44.4921778,10.6322222 43.6877333,11.1882222 C42.8824,11.7446667 42.4806222,12.3944444 42.4806222,13.1357778 C42.4806222,13.322 42.5361778,13.4144444 42.6472889,13.4144444 C42.9815111,13.2753333 43.2312889,13.206 43.3988444,13.206 C44.1775111,13.206 44.5672889,13.5771111 44.5672889,14.3184444 C44.5672889,14.6895556 44.4241778,15.0024444 44.1379556,15.258 C43.8517333,15.5131111 43.4895111,15.6406667 43.0535111,15.6406667 C42.5624,15.6406667 42.1530667,15.4486667 41.8255111,15.0664444 C41.4984,14.6837778 41.3344,14.2033333 41.3344,13.6228889 C41.3344,12.4633333 41.8392889,11.49 42.8490667,10.7024444 C43.8579556,9.914 45.1130667,9.51933333 46.6139556,9.51933333 C48.8241778,9.51933333 50.3650667,10.19 51.2388444,11.5322222 C51.7837333,12.3646667 52.0570667,13.8691111 52.0570667,16.0428889 L52.0570667,23.2966667 C52.0570667,24.9157778 52.4935111,25.7246667 53.3686222,25.7246667 C54.3219556,25.7246667 54.7988444,24.7588889 54.7988444,22.8246667 L54.7988444,22.3415556 L54.7988444,21.6851111 L54.7988444,21.6157778 C54.7988444,21.1331111 55.0037333,20.8917778 55.4126222,20.8917778 C55.8224,20.8917778 56.0268444,21.1575556 56.0268444,21.6908889 C56.0268444,23.6157778 55.8490667,24.9077778 55.4948444,25.5691111 C55.1397333,26.2295556 54.4441778,26.5597778 53.4077333,26.5597778 C51.7975111,26.5597778 50.9930667,25.61 50.9930667,23.7086667" id="Fill-5" fill="#004355"></path>
                        <path d="M58.9324889,17.9874222 C58.9324889,20.3469778 59.4236,22.2265333 60.4058222,23.6265333 C61.3876,25.0260889 62.7111556,25.7247556 64.3756,25.7247556 C65.6302667,25.7247556 66.6809333,25.3038667 67.5267111,24.4598667 C68.3720444,23.6145333 68.8631556,22.4985333 69.0000444,21.1105333 C69.1364889,20.3003111 69.2049333,19.2829778 69.2049333,18.0567556 C69.2049333,15.9523111 68.9707111,14.3447556 68.5036,13.2345333 C67.6782667,11.3145333 66.3444889,10.3536444 64.5013778,10.3536444 C62.8231556,10.3536444 61.4764889,11.0594222 60.4587111,12.4705333 C59.4409333,13.8816444 58.9324889,15.7207556 58.9324889,17.9874222 M64.4338222,9.51942222 C65.5476,9.51942222 66.4653778,9.79764444 67.1858222,10.3536444 C67.9058222,10.9100889 68.5796,11.8376444 69.2049333,13.1358667 L69.2049333,5.51986667 C69.2049333,4.87097778 69.1640444,4.44164444 69.0831556,4.23364444 C68.9213778,3.83897778 68.5440444,3.64253333 67.9507111,3.64253333 C67.7076,3.64253333 67.5187111,3.65408889 67.3840444,3.6772 C66.9800444,3.74608889 66.6831556,3.78075556 66.4947111,3.78075556 C65.9818222,3.78075556 65.7262667,3.60786667 65.7262667,3.25986667 C65.7262667,2.93542222 65.9538222,2.77275556 66.4098222,2.77275556 C66.4902667,2.77275556 66.7444889,2.81942222 67.1738222,2.91186667 L67.5356,2.91186667 L67.9382667,2.91186667 C68.1520444,2.91186667 68.4538222,2.88875556 68.8427111,2.84208889 C69.2316,2.79586667 69.5191556,2.77275556 69.7071556,2.77275556 C70.1631556,2.77275556 70.3773778,3.0052 70.3507111,3.47053333 L70.3507111,4.06297778 L70.3507111,5.2492 L70.3507111,23.0745333 C70.3507111,23.9349778 70.3773778,24.4816444 70.4324889,24.7145333 C70.6231556,25.2954222 71.0596,25.5865333 71.7418222,25.5865333 C72.1240444,25.5865333 72.4102667,25.5456444 72.6013778,25.4643111 C72.9831556,25.3838667 73.2289333,25.3429778 73.3382667,25.3429778 C73.8018222,25.3429778 74.0338222,25.5234222 74.0338222,25.8834222 C74.0338222,26.1949778 73.8293778,26.3509778 73.4200444,26.3509778 L73.1742667,26.3509778 L72.8471556,26.3509778 L71.7009333,26.3509778 L70.5142667,26.3509778 L70.0640444,26.3509778 C69.4911556,26.3509778 69.2049333,26.0936444 69.2049333,25.5758667 L69.2049333,25.4354222 L69.2049333,25.1536444 L69.2049333,24.5892 L69.2049333,23.7429778 C67.9271556,25.6212 66.3364889,26.5598667 64.4338222,26.5598667 C62.4489333,26.5598667 60.8444889,25.7723111 59.6209333,24.1949778 C58.3978222,22.6189778 57.7862667,20.5549778 57.7862667,18.0043111 C57.7862667,15.5243111 58.4111556,13.4900889 59.6622667,11.9016444 C60.9129333,10.3136444 62.5031556,9.51942222 64.4338222,9.51942222" id="Fill-7" fill="#004355"></path>
                        <path d="M82.9166667,10.3537333 C81.322,10.3537333 80.0224444,10.9452889 79.0188889,12.1270667 C78.0153333,13.3097333 77.4446667,14.8870667 77.3077778,16.8572889 L87.618,16.8572889 C87.9197778,16.8341778 88.0713333,16.7070667 88.0713333,16.4741778 C88.0713333,14.6430667 87.5966667,13.1648444 86.6486667,12.0408444 C85.6993333,10.9164 84.4557778,10.3537333 82.9166667,10.3537333 L82.9166667,10.3537333 Z M77.3077778,17.6915111 L77.3077778,18.2137333 C77.3077778,20.5550667 77.8091111,22.3924 78.8117778,23.7261778 C79.8148889,25.0595111 81.2086667,25.7248444 82.9944444,25.7248444 C84.1206667,25.7248444 85.11,25.4257333 85.9615556,24.8266222 C86.8135556,24.2284 87.4037778,23.3981778 87.7335556,22.3381778 C87.8704444,21.9470667 87.9806667,21.4048444 88.0637778,20.7137333 C88.118,20.2990667 88.3104444,20.0915111 88.6406667,20.0915111 C89.0246667,20.0915111 89.2171111,20.3004 89.2171111,20.7172889 C89.2171111,22.2710667 88.5855556,23.6332889 87.3224444,24.8035111 C86.0597778,25.9746222 84.6051111,26.5599556 82.9575556,26.5599556 C80.8984444,26.5599556 79.2371111,25.8119556 77.9744444,24.3172889 C76.7113333,22.8217333 76.0802222,20.8444 76.0802222,18.3875111 C76.0802222,15.7444 76.7144444,13.6052889 77.9833333,11.9715111 C79.2517778,10.3364 80.9091111,9.51951111 82.9557778,9.51951111 C84.7828889,9.51951111 86.2837778,10.1719556 87.4575556,11.4764 C88.6304444,12.7804 89.2171111,14.4595111 89.2171111,16.5141778 C89.2171111,17.0684 89.1691111,17.4039556 89.074,17.5190667 C88.978,17.6346222 88.6984444,17.6915111 88.2348889,17.6915111 L77.3077778,17.6915111 Z" id="Fill-9" fill="#004355"></path>
                        <path d="M96.5831111,11.7104889 L96.5831111,12.5100444 C97.7017778,10.5162667 99.3111111,9.51937778 101.412444,9.51937778 C103.976444,9.51937778 105.518222,10.7602667 106.036889,13.2402667 C107.019111,10.7602667 108.764889,9.51937778 111.275556,9.51937778 C112.230222,9.51937778 113.089778,9.71048889 113.853778,10.0922667 C114.617333,10.4731556 115.149333,10.9656 115.449778,11.5669333 C115.886222,12.4687111 116.104889,13.9722667 116.104889,16.0771556 L116.104889,23.3300444 C116.132444,23.9780444 116.201333,24.4176 116.312,24.6487111 C116.504444,25.0887111 116.904,25.3082667 117.511556,25.3082667 L117.759556,25.3082667 L118.462667,25.3082667 L118.918222,25.3082667 C119.552889,25.3082667 119.869778,25.4593778 119.869778,25.7602667 C119.869778,26.0616 119.624,26.2122667 119.132889,26.2122667 C119.187556,26.2122667 119.010222,26.2002667 118.601333,26.1780444 C116.827111,26.0616 115.818222,26.0033778 115.572444,26.0033778 C114.590222,26.0033778 113.580889,26.0593778 112.544444,26.1700444 C112.407111,26.1984889 112.243556,26.2122667 112.053333,26.2122667 C111.534667,26.2122667 111.275556,26.0447111 111.275556,25.7100444 C111.275556,25.4420444 111.493778,25.3082667 111.930222,25.3082667 L112.708,25.3082667 L113.526667,25.3082667 C114.289778,25.3082667 114.767556,24.8802667 114.958667,24.0238222 C115.012889,23.7700444 115.040444,23.0878222 115.040444,21.9767111 L115.040444,16.1829333 C115.040444,13.9629333 114.761778,12.4353778 114.205333,11.6033778 C113.648444,10.7709333 112.636889,10.3536 111.171556,10.3536 C110.192889,10.3536 109.316444,10.6207111 108.543111,11.1522667 C107.768889,11.6842667 107.232889,12.3891556 106.934667,13.2691556 C106.554667,14.4247111 106.364444,15.9056 106.364444,17.7100444 L106.364444,23.8504889 C106.364444,24.8220444 106.847111,25.3082667 107.812889,25.3082667 L108.103111,25.3082667 L108.764889,25.2384889 C108.82,25.2384889 108.875556,25.2269333 108.930667,25.2033778 L109.096,25.2033778 C109.703111,25.2033778 110.006667,25.3722667 110.006667,25.7078222 C110.006667,26.0442667 109.76,26.2122667 109.266222,26.2122667 C109.211556,26.2122667 108.889333,26.1780444 108.3,26.1082667 C107.710667,26.0376 106.962667,26.0033778 106.058667,26.0033778 C105.126667,26.0033778 104.111556,26.0531556 103.015556,26.1522667 L102.357778,26.2122667 C101.863556,26.2122667 101.616889,26.0509333 101.616889,25.7278222 C101.616889,25.4478222 101.807556,25.3082667 102.190222,25.3082667 L102.926667,25.3082667 L103.663556,25.3082667 C104.426667,25.3082667 104.904444,24.9371556 105.095556,24.1949333 C105.177333,23.8940444 105.218222,23.2558222 105.218222,22.2820444 L105.218222,15.5709333 C105.218222,12.0922667 103.942222,10.3536 101.389778,10.3536 C99.4346667,10.3536 98.1044444,11.1771556 97.3986667,12.8229333 C96.9911111,13.7740444 96.7875556,14.9909333 96.7875556,16.4744889 L96.7875556,22.0038222 C96.7875556,23.5576 96.8555556,24.4967111 96.9924444,24.8207111 C97.1288889,25.1460444 97.5515556,25.3082667 98.2608889,25.3082667 L98.8955556,25.3082667 L99.3662222,25.3082667 L99.6524444,25.3082667 C100.088889,25.3082667 100.307556,25.4527111 100.307556,25.7433778 C100.307556,26.0562667 100.073778,26.2122667 99.6084444,26.2122667 C99.4711111,26.2122667 99.2111111,26.1887111 98.8271111,26.1424889 C98.0591111,26.0504889 97.3871111,26.0033778 96.8115556,26.0033778 C96.016,26.0033778 94.8786667,26.0638222 93.3977778,26.1860444 C93.1786667,26.2033778 92.9595556,26.2122667 92.7404444,26.2122667 C92.2191111,26.2122667 91.9586667,26.0616 91.9586667,25.7602667 C91.9586667,25.4593778 92.2586667,25.3082667 92.8591111,25.3082667 L93.0635556,25.3082667 L93.5546667,25.3082667 L93.7595556,25.3082667 L93.964,25.3082667 C94.8368889,25.3082667 95.3688889,24.8922667 95.56,24.0624889 C95.6142222,23.8313778 95.6417778,23.1051556 95.6417778,21.8816 L95.6417778,13.2980444 C95.6417778,12.4909333 95.6017778,11.9478222 95.5217778,11.6704889 C95.308,11.0487111 94.8808889,10.7371556 94.2408889,10.7371556 C94.0537778,10.7371556 93.8666667,10.7487111 93.68,10.7713778 C93.3328889,10.8184889 93.0257778,10.8407111 92.7591111,10.8407111 C92.2253333,10.8407111 91.9586667,10.6847111 91.9586667,10.3718222 C91.9586667,10.0349333 92.2333333,9.86737778 92.784,9.86737778 L93.1142222,9.86737778 C93.5542222,9.93626667 93.94,9.97093333 94.2702222,9.97093333 C94.6551111,9.97093333 94.9302222,9.96026667 95.0955556,9.93626667 C95.4257778,9.89048889 95.7413333,9.86737778 96.0448889,9.86737778 C96.5395556,9.86737778 96.7875556,10.1456 96.7875556,10.7020444 L96.7875556,10.9451556 C96.7875556,10.9224889 96.7195556,11.1771556 96.5831111,11.7104889" id="Fill-11" fill="#004355"></path>
                        <path d="M126.376933,5.97222222 C126.376933,6.85355556 125.926711,7.294 125.026267,7.294 C124.208044,7.294 123.798711,6.87577778 123.798711,6.042 C123.798711,5.20688889 124.234711,4.78955556 125.108044,4.78955556 C125.953378,4.78955556 126.376933,5.18466667 126.376933,5.97222222 L126.376933,5.97222222 Z M126.008489,10.9077778 L126.008489,11.602 L126.008489,22.7051111 C126.008489,23.7006667 126.021822,24.2562222 126.049378,24.3713333 C126.185822,24.9966667 126.608489,25.3082222 127.318267,25.3082222 L128.054711,25.3082222 L128.464044,25.3082222 C129.118711,25.3082222 129.446267,25.4593333 129.446267,25.7602222 C129.446267,26.0615556 129.186711,26.2122222 128.668489,26.2122222 C128.3956,26.2122222 128.149822,26.1886667 127.932044,26.1424444 C126.895156,26.0504444 125.9676,26.0033333 125.149378,26.0033333 C124.384933,26.0033333 123.825378,26.0237778 123.471156,26.0633333 L122.407156,26.1828889 C122.243156,26.202 122.052489,26.2122222 121.834267,26.2122222 C121.288044,26.2122222 121.0156,26.0615556 121.0156,25.7602222 C121.0156,25.4593333 121.245378,25.3082222 121.704489,25.3082222 L122.6356,25.3082222 L122.878267,25.3082222 L123.161822,25.3082222 C124.025378,25.3082222 124.552044,25.0308889 124.741378,24.4757778 C124.821822,24.2913333 124.862711,23.666 124.862711,22.602 L124.862711,12.2286667 C124.862711,11.6731111 124.742711,11.2922222 124.501822,11.0837778 C124.261822,10.8753333 123.807156,10.7713333 123.139156,10.7713333 L122.258267,10.7713333 L121.937378,10.7713333 L121.656933,10.7713333 C121.229378,10.7713333 121.0156,10.6206667 121.0156,10.3193333 C121.0156,10.0184444 121.296933,9.86733333 121.860933,9.86733333 L122.344489,9.86733333 L122.948044,10.0064444 L123.270267,10.0064444 L123.592489,10.0064444 C123.780933,10.0064444 124.129378,9.97088889 124.6396,9.902 C124.720044,9.902 124.8276,9.89044444 124.961822,9.86733333 L125.284044,9.86733333 C125.766711,9.86733333 126.008489,10.1331111 126.008489,10.6651111 L126.008489,10.9077778 Z" id="Fill-13" fill="#004355"></path>
                        <path d="M149.105244,19.5316889 C148.707022,22.0894667 147.670133,24.0699111 145.993244,25.4752444 C144.3168,26.8801333 142.151467,27.5828 139.498578,27.5828 C136.712356,27.5828 134.441689,26.7170222 132.686578,24.9863556 C130.931911,23.2556889 130.054578,21.0219111 130.054578,18.2828 C130.054578,15.6179111 130.880356,13.4316889 132.5328,11.7254667 C134.185244,10.0183556 136.283911,9.16457778 138.8288,9.16457778 C139.902133,9.16457778 140.837244,9.34235556 141.633244,9.6988 C142.429244,10.0548 143.014133,10.5525778 143.387911,11.1908 L143.387911,9.5268 L148.6528,9.5268 L148.6528,16.9801333 L142.881689,16.9801333 C142.615911,16.3539111 142.230133,15.8743556 141.723911,15.5428 C141.2168,15.2103556 140.613689,15.0445778 139.914578,15.0445778 C138.985244,15.0445778 138.235022,15.3436889 137.662133,15.9405778 C137.0888,16.5374667 136.802578,17.3188 136.802578,18.2828 C136.802578,19.2601333 137.071022,20.0356889 137.607467,20.6085778 C138.144356,21.1814667 138.8768,21.4668 139.806133,21.4668 C140.589689,21.4668 141.2288,21.3112444 141.723911,20.9970222 C142.218133,20.6841333 142.603911,20.1952444 142.881689,19.5316889 L149.105244,19.5316889 Z" id="Fill-15" fill="#F29200"></path>
                        <g id="Group-19" transform="translate(151.111111, 8.916222)">
                            <mask id="mask-2" fill="white">
                                <use xlink:href="#path-1"></use>
                            </mask>
                            <g id="Clip-18"></g>
                            <path d="M6.76888889,9.54773333 C6.76888889,10.5241778 7.09155556,11.3299556 7.73688889,11.9632889 C8.38177778,12.5961778 9.20488889,12.9130667 10.2062222,12.9130667 C11.1951111,12.9130667 12.0244444,12.5939556 12.6942222,11.9544 C13.3631111,11.3152889 13.6982222,10.5135111 13.6982222,9.54773333 C13.6982222,8.59528889 13.3604444,7.79306667 12.6853333,7.14195556 C12.0093333,6.4904 11.1835556,6.16506667 10.2062222,6.16506667 C9.20488889,6.16506667 8.38177778,6.48195556 7.73688889,7.1144 C7.09155556,7.74773333 6.76888889,8.55884444 6.76888889,9.54773333 L6.76888889,9.54773333 Z M19.8133333,12.8766222 L21.948,12.8766222 L21.948,18.2139556 L13.5537778,18.2139556 L13.5537778,15.9526222 C12.9502222,16.8695111 12.2262222,17.5512889 11.3822222,17.9970667 C10.5377778,18.4428444 9.55511111,18.6668444 8.43333333,18.6668444 C6.06933333,18.6668444 4.076,17.7775111 2.45422222,15.9979556 C0.831555556,14.2188444 0.0204444444,12.0326222 0.0204444444,9.43973333 C0.0204444444,6.68951111 0.789333333,4.46417778 2.32711111,2.76284444 C3.86533333,1.06284444 5.864,0.212177778 8.32444444,0.212177778 C9.49422222,0.212177778 10.5142222,0.432622222 11.3822222,0.872622222 C12.2506667,1.31351111 12.9746667,1.97973333 13.5537778,2.87173333 L13.5537778,0.610844444 L21.948,0.610844444 L21.948,5.94728889 L19.8133333,5.94728889 L19.8133333,12.8766222 Z" id="Fill-17" fill="#F29200" mask="url(#mask-2)"></path>
                        </g>
                        <g id="Group-22" transform="translate(174.666667, 0.027333)">
                            <mask id="mask-4" fill="white">
                                <use xlink:href="#path-3"></use>
                            </mask>
                            <g id="Clip-21"></g>
                            <polygon id="Fill-20" fill="#F29200" mask="url(#mask-4)" points="2.22786667 5.75435556 0.0749777778 5.75435556 0.0749777778 0.417022222 8.81364444 0.417022222 8.81364444 21.7654667 10.7132 21.7654667 10.7132 27.1028 0.0749777778 27.1028 0.0749777778 21.7654667 2.22786667 21.7654667"></polygon>
                        </g>
                    </g>
                </g>
            </g>
        </g>
    </g>
</svg>