<?xml version="1.0" encoding="UTF-8"?>
<svg width="184px" height="30px" viewBox="0 0 184 30" version="1.1" xmlns="http://www.w3.org/2000/svg" xmlns:xlink="http://www.w3.org/1999/xlink">
    <!-- Generator: Sketch 42 (36781) - http://www.bohemiancoding.com/sketch -->
    <title>authy-logo</title>
    <desc>Created with Sketch.</desc>
    <defs></defs>
    <g id="Page-1-Copy" stroke="none" stroke-width="1" fill="none" fill-rule="evenodd">
        <g id="About" transform="translate(-433.000000, -1048.000000)">
            <g id="Clients" transform="translate(206.000000, 962.000000)">
                <g id="Authy" transform="translate(227.000000, 86.000000)">
                    <g id="authy-logo">
                        <g id="Layer_1">
                            <g id="Group">
                                <g transform="translate(49.333333, 4.333333)" id="Shape" fill="#515559">
                                    <path d="M11.277,1.08466667 C11.0033333,0.576666667 10.5133333,0.284333333 9.93266667,0.284333333 C9.31733333,0.284333333 8.78866667,0.598666667 8.55033333,1.10433333 L0.367666667,17.226 L0.356666667,17.2486667 C0.155666667,17.695 0.184333333,18.1583333 0.438666667,18.5513333 C0.726,18.9953333 1.275,19.2816667 1.83766667,19.2816667 C2.40533333,19.2816667 2.888,18.9886667 3.123,18.505 L5.168,14.5156667 L14.695,14.5156667 L16.6556667,18.4126667 C16.9096667,18.9336667 17.429,19.2423333 18.0466667,19.2423333 C18.659,19.2423333 19.2266667,18.9403333 19.491,18.4713333 C19.723,18.0596667 19.7033333,17.5826667 19.4346667,17.127 L11.277,1.08466667 Z M13.3123333,11.7233333 L6.52766667,11.7233333 L9.93033333,4.93966667 L13.3123333,11.7233333 Z"></path>
                                    <path d="M46.6873333,0.45 C45.9276667,0.45 45.1203333,0.990666667 45.1203333,1.99233333 L45.1203333,10.884 C45.1203333,14.548 42.3093333,16.2176667 39.6983333,16.2176667 C37.0876667,16.2176667 34.2766667,14.548 34.2766667,10.884 L34.2766667,1.99233333 C34.2766667,1.03366667 33.488,0.532 32.7093333,0.532 C31.811,0.532 31.1593333,1.135 31.1593333,1.965 L31.1593333,10.884 C31.1593333,16.3826667 35.4556667,19.2593333 39.6983333,19.2593333 C43.9426667,19.2593333 48.2383333,16.3826667 48.2383333,10.884 L48.2383333,1.965 C48.238,0.981666667 47.438,0.45 46.6873333,0.45 Z"></path>
                                    <path d="M75.8066667,0.718 L61.765,0.718 C60.7923333,0.718 60.2676667,1.47966667 60.2676667,2.19533333 C60.2676667,2.91166667 60.7923333,3.67266667 61.765,3.67266667 L67.241,3.67266667 L67.241,17.851 C67.241,18.854 68.0233333,19.3946667 68.7586667,19.3946667 C69.5326667,19.3946667 70.3323333,18.818 70.3323333,17.851 C70.3323333,15.41 70.3256667,12.9493333 70.3176667,10.4896667 C70.312,8.212 70.3056667,5.93433333 70.3043333,3.67266667 L75.807,3.67266667 C76.8063333,3.67266667 77.346,2.912 77.346,2.19533333 C77.3456667,1.47966667 76.806,0.718 75.8066667,0.718 Z"></path>
                                    <path d="M102.848,0.420333333 C102.105333,0.420333333 101.317,0.952 101.317,1.93833333 L101.317,8.796 L92.425,8.796 L92.425,1.93833333 C92.425,0.958333333 91.6306667,0.430666667 90.8846667,0.430666667 C90.1413333,0.430666667 89.3883333,0.947666667 89.3883333,1.93833333 L89.3883333,17.7416667 C89.3883333,18.1946667 89.5683333,18.6023333 89.896,18.8886667 C90.1836667,19.142 90.558,19.2806667 90.9513333,19.2806667 C91.684,19.2806667 92.425,18.7526667 92.425,17.7416667 L92.425,11.589 L101.317,11.589 L101.317,17.7416667 C101.317,18.3386667 101.576667,18.7036667 101.794,18.905 C102.07,19.1606667 102.439,19.3006667 102.833333,19.3006667 L102.833333,19.3006667 C103.583333,19.3006667 104.38,18.7543333 104.38,17.7416667 L104.38,1.93833333 C104.38,0.951666667 103.59,0.420333333 102.848,0.420333333 Z"></path>
                                    <path d="M133.756667,1.22766667 C133.498667,0.754666667 132.965333,0.448666667 132.398,0.448666667 C131.883667,0.448666667 131.421333,0.700333333 131.127333,1.139 L125.365,8.93766667 L119.679667,1.165 C119.375667,0.722333333 118.903,0.468 118.378,0.468 C117.763667,0.468 117.177667,0.815666667 116.919,1.33166667 C116.683333,1.80433333 116.747333,2.34166667 117.096333,2.80666667 L123.844333,11.7433333 L123.844333,17.6333333 C123.844333,18.5433333 124.479667,19.1796667 125.39,19.1796667 C126.139,19.1796667 126.935667,18.637 126.935667,17.6333333 L126.935667,11.7403333 L133.632,2.74966667 L133.653,2.719 C133.968333,2.228 134.006333,1.68533333 133.756667,1.22766667 Z"></path>
                                </g>
                                <g id="Shape" fill="#EC1C24">
                                    <path d="M16.931,9.37 L23.3026667,15.742 C24.2236667,16.6626667 25.7163333,16.6613333 26.637,15.7406667 C27.558,14.82 27.559,13.327 26.638,12.406 L20.2666667,6.03466667 C15.7073333,1.47533333 8.339,1.401 3.68266667,5.804 C3.64,5.84033333 3.59733333,5.877 3.55733333,5.91666667 C3.53766667,5.937 3.51933333,5.958 3.50066667,5.978 C3.48,5.99733333 3.459,6.01566667 3.43966667,6.035 C3.399,6.07566667 3.363,6.11733333 3.32666667,6.16 C-1.07666667,10.8173333 -1.00166667,18.1843333 3.55733333,22.744 L9.929,29.1153333 C10.85,30.0356667 12.3423333,30.0356667 13.2633333,29.1153333 C14.1843333,28.1943333 14.1853333,26.7006667 13.264,25.7803333 L6.89233333,19.409 C4.11266667,16.6283333 4.09366667,12.1176667 6.835,9.31266667 C9.63966667,6.57166667 14.151,6.59033333 16.931,9.37 Z"></path>
                                    <path d="M25.154,0.885333333 C24.233,1.80633333 24.234,3.29933333 25.155,4.22 L31.526,10.5913333 C34.306,13.371 34.3236667,17.8816667 31.583,20.6876667 C28.7783333,23.4273333 24.268,23.4093333 21.4876667,20.629 L15.1166667,14.2583333 C14.1956667,13.3373333 12.7013333,13.3373333 11.781,14.2583333 C10.86,15.1793333 10.86,16.6733333 11.781,17.594 L18.152,23.965 C22.7113333,28.525 30.08,28.599 34.7353333,24.1956667 C34.7783333,24.1596667 34.8206667,24.1233333 34.8613333,24.082 C34.881,24.062 34.899,24.0423333 34.9186667,24.0223333 C34.9386667,24.0023333 34.9596667,23.984 34.9796667,23.9646667 C35.0196667,23.9233333 35.0553333,23.8823333 35.0913333,23.838 C39.4953333,19.183 39.4206667,11.8156667 34.8613333,7.25566667 L28.4906667,0.885 C27.5693333,-0.0356666667 26.0753333,-0.0356666667 25.154,0.885333333 Z"></path>
                                </g>
                                <g transform="translate(49.333333, 4.333333)" id="Shape" fill="#515559">
                                    <path d="M11.277,1.08466667 C11.0033333,0.576666667 10.5133333,0.284333333 9.93266667,0.284333333 C9.31733333,0.284333333 8.78866667,0.598666667 8.55033333,1.10433333 L0.367666667,17.226 L0.356666667,17.2486667 C0.155666667,17.695 0.184333333,18.1583333 0.438666667,18.5513333 C0.726,18.9953333 1.275,19.2816667 1.83766667,19.2816667 C2.40533333,19.2816667 2.888,18.9886667 3.123,18.505 L5.168,14.5156667 L14.695,14.5156667 L16.6556667,18.4126667 C16.9096667,18.9336667 17.429,19.2423333 18.0466667,19.2423333 C18.659,19.2423333 19.2266667,18.9403333 19.491,18.4713333 C19.723,18.0596667 19.7033333,17.5826667 19.4346667,17.127 L11.277,1.08466667 Z M13.3123333,11.7233333 L6.52766667,11.7233333 L9.93033333,4.93966667 L13.3123333,11.7233333 Z"></path>
                                    <path d="M46.6873333,0.45 C45.9276667,0.45 45.1203333,0.990666667 45.1203333,1.99233333 L45.1203333,10.884 C45.1203333,14.548 42.3093333,16.2176667 39.6983333,16.2176667 C37.0876667,16.2176667 34.2766667,14.548 34.2766667,10.884 L34.2766667,1.99233333 C34.2766667,1.03366667 33.488,0.532 32.7093333,0.532 C31.811,0.532 31.1593333,1.135 31.1593333,1.965 L31.1593333,10.884 C31.1593333,16.3826667 35.4556667,19.2593333 39.6983333,19.2593333 C43.9426667,19.2593333 48.2383333,16.3826667 48.2383333,10.884 L48.2383333,1.965 C48.238,0.981666667 47.438,0.45 46.6873333,0.45 Z"></path>
                                    <path d="M75.8066667,0.718 L61.765,0.718 C60.7923333,0.718 60.2676667,1.47966667 60.2676667,2.19533333 C60.2676667,2.91166667 60.7923333,3.67266667 61.765,3.67266667 L67.241,3.67266667 L67.241,17.851 C67.241,18.854 68.0233333,19.3946667 68.7586667,19.3946667 C69.5326667,19.3946667 70.3323333,18.818 70.3323333,17.851 C70.3323333,15.41 70.3256667,12.9493333 70.3176667,10.4896667 C70.312,8.212 70.3056667,5.93433333 70.3043333,3.67266667 L75.807,3.67266667 C76.8063333,3.67266667 77.346,2.912 77.346,2.19533333 C77.3456667,1.47966667 76.806,0.718 75.8066667,0.718 Z"></path>
                                    <path d="M102.848,0.420333333 C102.105333,0.420333333 101.317,0.952 101.317,1.93833333 L101.317,8.796 L92.425,8.796 L92.425,1.93833333 C92.425,0.958333333 91.6306667,0.430666667 90.8846667,0.430666667 C90.1413333,0.430666667 89.3883333,0.947666667 89.3883333,1.93833333 L89.3883333,17.7416667 C89.3883333,18.1946667 89.5683333,18.6023333 89.896,18.8886667 C90.1836667,19.142 90.558,19.2806667 90.9513333,19.2806667 C91.684,19.2806667 92.425,18.7526667 92.425,17.7416667 L92.425,11.589 L101.317,11.589 L101.317,17.7416667 C101.317,18.3386667 101.576667,18.7036667 101.794,18.905 C102.07,19.1606667 102.439,19.3006667 102.833333,19.3006667 L102.833333,19.3006667 C103.583333,19.3006667 104.38,18.7543333 104.38,17.7416667 L104.38,1.93833333 C104.38,0.951666667 103.59,0.420333333 102.848,0.420333333 Z"></path>
                                    <path d="M133.756667,1.22766667 C133.498667,0.754666667 132.965333,0.448666667 132.398,0.448666667 C131.883667,0.448666667 131.421333,0.700333333 131.127333,1.139 L125.365,8.93766667 L119.679667,1.165 C119.375667,0.722333333 118.903,0.468 118.378,0.468 C117.763667,0.468 117.177667,0.815666667 116.919,1.33166667 C116.683333,1.80433333 116.747333,2.34166667 117.096333,2.80666667 L123.844333,11.7433333 L123.844333,17.6333333 C123.844333,18.5433333 124.479667,19.1796667 125.39,19.1796667 C126.139,19.1796667 126.935667,18.637 126.935667,17.6333333 L126.935667,11.7403333 L133.632,2.74966667 L133.653,2.719 C133.968333,2.228 134.006333,1.68533333 133.756667,1.22766667 Z"></path>
                                </g>
                                <g id="Shape" fill="#EC1C24">
                                    <path d="M16.931,9.37 L23.3026667,15.742 C24.2236667,16.6626667 25.7163333,16.6613333 26.637,15.7406667 C27.558,14.82 27.559,13.327 26.638,12.406 L20.2666667,6.03466667 C15.7073333,1.47533333 8.339,1.401 3.68266667,5.804 C3.64,5.84033333 3.59733333,5.877 3.55733333,5.91666667 C3.53766667,5.937 3.51933333,5.958 3.50066667,5.978 C3.48,5.99733333 3.459,6.01566667 3.43966667,6.035 C3.399,6.07566667 3.363,6.11733333 3.32666667,6.16 C-1.07666667,10.8173333 -1.00166667,18.1843333 3.55733333,22.744 L9.929,29.1153333 C10.85,30.0356667 12.3423333,30.0356667 13.2633333,29.1153333 C14.1843333,28.1943333 14.1853333,26.7006667 13.264,25.7803333 L6.89233333,19.409 C4.11266667,16.6283333 4.09366667,12.1176667 6.835,9.31266667 C9.63966667,6.57166667 14.151,6.59033333 16.931,9.37 Z"></path>
                                    <path d="M25.154,0.885333333 C24.233,1.80633333 24.234,3.29933333 25.155,4.22 L31.526,10.5913333 C34.306,13.371 34.3236667,17.8816667 31.583,20.6876667 C28.7783333,23.4273333 24.268,23.4093333 21.4876667,20.629 L15.1166667,14.2583333 C14.1956667,13.3373333 12.7013333,13.3373333 11.781,14.2583333 C10.86,15.1793333 10.86,16.6733333 11.781,17.594 L18.152,23.965 C22.7113333,28.525 30.08,28.599 34.7353333,24.1956667 C34.7783333,24.1596667 34.8206667,24.1233333 34.8613333,24.082 C34.881,24.062 34.899,24.0423333 34.9186667,24.0223333 C34.9386667,24.0023333 34.9596667,23.984 34.9796667,23.9646667 C35.0196667,23.9233333 35.0553333,23.8823333 35.0913333,23.838 C39.4953333,19.183 39.4206667,11.8156667 34.8613333,7.25566667 L28.4906667,0.885 C27.5693333,-0.0356666667 26.0753333,-0.0356666667 25.154,0.885333333 Z"></path>
                                </g>
                            </g>
                        </g>
                    </g>
                </g>
            </g>
        </g>
    </g>
</svg>