<?xml version="1.0" encoding="UTF-8"?>
<svg width="23px" height="15px" viewBox="0 0 23 15" version="1.1" xmlns="http://www.w3.org/2000/svg" xmlns:xlink="http://www.w3.org/1999/xlink">
    <!-- Generator: Sketch 42 (36781) - http://www.bohemiancoding.com/sketch -->
    <title>Group</title>
    <desc>Created with Sketch.</desc>
    <defs></defs>
    <g id="Page-1-Copy" stroke="none" stroke-width="1" fill="none" fill-rule="evenodd" opacity="0.2">
        <g id="Home" transform="translate(-1139.000000, -72.000000)" fill="#000000">
            <g id="Header" transform="translate(206.000000, 50.000000)">
                <g id="Social-media" transform="translate(860.000000, 22.000000)">
                    <g id="Group" transform="translate(73.000000, 0.000000)">
                        <path d="M7.18642857,11.6564286 L3.25071429,11.6564286 L3.25071429,7.86785714 L7.37642857,7.86785714 C7.37642857,7.86785714 8.87071429,7.84857143 8.87071429,9.815 C8.87071429,11.4542857 7.77785714,11.64 7.18642857,11.6564286 L7.18642857,11.6564286 Z M3.25071429,2.52 L6.84571429,2.52 L7.37642857,2.52 C7.37642857,2.52 8.37928571,2.52 8.37928571,3.99428571 C8.37928571,5.46928571 7.78928571,5.68285714 7.12071429,5.68285714 L3.25071429,5.68285714 L3.25071429,2.52 Z M9.225,6.47214286 C9.225,6.47214286 11.3878571,6.31142857 11.3878571,3.775 C11.3878571,1.23785714 9.61857143,0 7.37642857,0 L3.25071429,0 L3.12928571,0 L0,0 L0,14.1757143 L3.12928571,14.1757143 L3.25071429,14.1757143 L7.37642857,14.1757143 C7.37642857,14.1757143 11.8792857,14.3178571 11.8792857,9.99214286 C11.8792857,9.99214286 12.0764286,6.47214286 9.225,6.47214286 L9.225,6.47214286 Z" id="Fill-17"></path>
                        <path d="M19.8112885,7.83285714 L15.15486,7.83285714 C15.15486,7.83285714 15.45986,5.64785714 17.6491457,5.64785714 C19.8391457,5.64785714 19.8112885,7.83285714 19.8112885,7.83285714 M17.5941457,3.57142857 C12.1427171,3.57142857 12.1477171,9.01785714 12.1477171,9.01785714 C12.1477171,9.01785714 11.7734314,14.4364286 17.5941457,14.4364286 C17.5941457,14.4364286 22.44486,14.7135714 22.44486,10.6671429 L19.94986,10.6671429 C19.94986,10.6671429 20.0334314,12.1914286 17.6770028,12.1914286 C17.6770028,12.1914286 15.1827171,12.3585714 15.1827171,9.725 L22.5277171,9.725 C22.5277171,9.725 23.3312885,3.57142857 17.5941457,3.57142857" id="Fill-19"></path>
                        <polygon id="Fill-21" points="20.1342857 0.714285714 14.2857143 0.714285714 14.2857143 2.14285714 20.1342857 2.14285714"></polygon>
                    </g>
                </g>
            </g>
        </g>
    </g>
</svg>