<?xml version="1.0" encoding="UTF-8"?>
<svg width="169px" height="37px" viewBox="0 0 169 37" version="1.1" xmlns="http://www.w3.org/2000/svg" xmlns:xlink="http://www.w3.org/1999/xlink">
    <!-- Generator: Sketch 42 (36781) - http://www.bohemiancoding.com/sketch -->
    <title>Page 1</title>
    <desc>Created with Sketch.</desc>
    <defs>
        <polygon id="path-1" points="127.395667 15.6113667 127.395667 0.1187 0.0345 0.1187 0.0345 15.6113667 127.395667 15.6113667"></polygon>
        <polygon id="path-3" points="32.1546 36.6666667 0 36.6666667 0 0.192166667 32.1546 0.192166667 32.1546 36.6666667"></polygon>
    </defs>
    <g id="Page-1-Copy" stroke="none" stroke-width="1" fill="none" fill-rule="evenodd">
        <g id="About" transform="translate(-999.000000, -1044.000000)">
            <g id="Clients" transform="translate(206.000000, 962.000000)">
                <g id="Fullstack" transform="translate(793.000000, 82.000000)">
                    <g id="Page-1">
                        <g id="Group-3" transform="translate(41.333333, 11.141333)">
                            <mask id="mask-2" fill="white">
                                <use xlink:href="#path-1"></use>
                            </mask>
                            <g id="Clip-2"></g>
                            <path d="M121.0205,6.73403333 L127.1215,0.380033333 L123.1385,0.380033333 L117.058833,6.92636667 L117.058833,0.380033333 L113.769167,0.380033333 L113.769167,15.3540333 L117.058833,15.3540333 L117.058833,10.7787 L118.7975,8.97836667 L123.438833,15.3540333 L127.395833,15.3540333 L121.0205,6.73403333 Z M105.101833,12.5693667 C102.5345,12.5693667 100.760833,10.4340333 100.760833,7.8677 L100.760833,7.8237 C100.760833,5.25703333 102.5735,3.1607 105.101833,3.1607 C106.599833,3.1607 107.772167,3.8017 108.9365,4.85203333 L111.0275,2.43336667 C109.638167,1.06036667 107.946833,0.1187 105.1235,0.1187 C100.5215,0.1187 97.3131667,3.60936667 97.3131667,7.8677 L97.3131667,7.90703333 C97.3131667,12.2077 100.5915,15.6113667 104.992167,15.6113667 C107.886167,15.6113667 109.595167,14.5823667 111.133167,12.9353667 L109.0365,10.8177 C107.864833,11.8893667 106.813833,12.5693667 105.101833,12.5693667 L105.101833,12.5693667 Z M87.1728333,0.271033333 L80.7535,15.3540333 L84.1141667,15.3540333 L85.4835,11.9940333 L86.6638333,9.08703333 L88.6508333,4.22803333 L90.6418333,9.08703333 L91.8141667,11.9940333 L93.1868333,15.3540333 L96.6305,15.3540333 L90.2151667,0.271033333 L87.1728333,0.271033333 Z M81.4381667,0.380033333 L69.0361667,0.380033333 L69.0361667,3.41803333 L73.5851667,3.41803333 L73.5851667,15.3540333 L76.8848333,15.3540333 L76.8848333,3.41803333 L81.4381667,3.41803333 L81.4381667,0.380033333 Z M62.8041667,6.39003333 C60.2165,5.72736667 59.5751667,5.40936667 59.5751667,4.42036667 L59.5751667,4.37636667 C59.5751667,3.64836667 60.2368333,3.07436667 61.5015,3.07436667 C62.7651667,3.07436667 64.0681667,3.63136667 65.3921667,4.5507 L67.1065,2.0717 C65.5845,0.8467 63.7231667,0.167366667 61.5411667,0.167366667 C58.4858333,0.167366667 56.3028333,1.95836667 56.3028333,4.6777 L56.3028333,4.72103333 C56.3028333,7.69336667 58.2468333,8.53003333 61.2668333,9.30103333 C63.7678333,9.94203333 64.2825,10.3733667 64.2825,11.2050333 L64.2825,11.2450333 C64.2825,12.1250333 63.4708333,12.6610333 62.1198333,12.6610333 C60.4071667,12.6610333 58.9995,11.9547 57.6491667,10.8387 L55.7061667,13.1753667 C57.4965,14.7747 59.7888333,15.5723667 62.0541667,15.5723667 C65.2831667,15.5723667 67.5588333,13.9030333 67.5588333,10.9267 L67.5588333,10.8830333 C67.5588333,8.2727 65.8425,7.17903333 62.8041667,6.39003333 L62.8041667,6.39003333 Z M46.7811667,0.380033333 L43.4858333,0.380033333 L43.4858333,15.3540333 L54.2498333,15.3540333 L54.2498333,12.3557 L46.7811667,12.3557 L46.7811667,0.380033333 Z M33.5368333,0.380033333 L30.2471667,0.380033333 L30.2471667,15.3540333 L41.0071667,15.3540333 L41.0071667,12.3557 L33.5368333,12.3557 L33.5368333,0.380033333 Z M23.5925,8.95703333 C23.5925,11.3317 22.3685,12.5523667 20.3591667,12.5523667 C18.3501667,12.5523667 17.1295,11.2883667 17.1295,8.84836667 L17.1295,0.380033333 L13.8358333,0.380033333 L13.8358333,8.93503333 C13.8358333,13.3447 16.2971667,15.5933667 20.3148333,15.5933667 C24.3378333,15.5933667 26.8878333,13.3667 26.8878333,8.83036667 L26.8878333,0.380033333 L23.5925,0.380033333 L23.5925,8.95703333 Z M0.0345,15.3540333 L3.33316667,15.3540333 L3.33316667,9.5537 L10.4751667,9.5537 L10.4751667,6.56036667 L3.33316667,6.56036667 L3.33316667,3.37503333 L11.4391667,3.37503333 L11.4391667,0.380033333 L0.0345,0.380033333 L0.0345,15.3540333 Z" id="Fill-1" fill="#A7A9AC" mask="url(#mask-2)"></path>
                        </g>
                        <g id="Group-6" transform="translate(0.000000, 0.141333)">
                            <mask id="mask-4" fill="white">
                                <use xlink:href="#path-3"></use>
                            </mask>
                            <g id="Clip-5"></g>
                            <path d="M2.11393333,13.2431667 L14.1692667,33.4515 L2.11426667,26.4908333 L2.11393333,13.2431667 Z M16.0772667,2.30583333 L27.4706,8.88416667 L4.68326667,8.88416667 L16.0772667,2.30583333 Z M18.1906,18.4295 L30.0402667,11.5881667 L30.0406,25.2708333 L18.1906,18.4295 Z M17.1339333,33.9428333 L17.1342667,20.2601667 L28.9836,27.1011667 L17.1339333,33.9428333 Z M15.0206,19.0398333 L15.0206,30.7515 L4.36193333,12.8865 L15.0206,19.0398333 Z M5.31893333,10.9978333 L26.8352667,10.9978333 L16.0772667,17.2088333 L5.31893333,10.9978333 Z M32.1542667,10.3678333 C32.1542667,9.61216667 31.7516,8.9145 31.0976,8.53683333 L17.1342667,0.475166667 C16.8069333,0.2865 16.4422667,0.192166667 16.0772667,0.192166667 C15.7122667,0.192166667 15.3472667,0.2865 15.0206,0.475166667 L1.05693333,8.53683333 C0.402933333,8.9145 -6.66666667e-05,9.6125 -6.66666667e-05,10.3678333 L0.000266666667,26.4908333 C0.000266666667,27.2458333 0.403266667,27.9438333 1.05693333,28.3215 L15.0199333,36.3831667 C15.3466,36.5721667 15.7119333,36.6668333 16.0769333,36.6668333 C16.4416,36.6668333 16.8066,36.5721667 17.1339333,36.3831667 L31.0979333,28.3215 C31.7519333,27.9438333 32.1546,27.2458333 32.1546,26.4908333 L32.1542667,10.3678333 Z" id="Fill-4" fill="#14FDC0" mask="url(#mask-4)"></path>
                        </g>
                    </g>
                </g>
            </g>
        </g>
    </g>
</svg>