<?xml version="1.0" encoding="UTF-8"?>
<svg width="127px" height="40px" viewBox="0 0 127 40" version="1.1" xmlns="http://www.w3.org/2000/svg" xmlns:xlink="http://www.w3.org/1999/xlink">
    <!-- Generator: Sketch 42 (36781) - http://www.bohemiancoding.com/sketch -->
    <title>Page 1</title>
    <desc>Created with Sketch.</desc>
    <defs>
        <polygon id="path-1" points="16.9495935 17.9122927 16.9495935 0.300910569 0.169203252 0.300910569 0.169203252 17.9122927 16.9495935 17.9122927"></polygon>
    </defs>
    <g id="Page-1-Copy" stroke="none" stroke-width="1" fill="none" fill-rule="evenodd">
        <g id="About" transform="translate(-208.000000, -1167.000000)">
            <g id="Clients" transform="translate(206.000000, 962.000000)">
                <g id="Gistia" transform="translate(1.000000, 205.000000)">
                    <g id="Page-1" transform="translate(1.000000, 0.000000)">
                        <path d="M55.0066667,14.9023089 C57.6938211,14.9023089 59.8795122,17.2600325 59.8795122,20.1585691 C59.8795122,23.0922276 57.6938211,25.4788943 55.0066667,25.4788943 C52.3373984,25.4788943 50.1656911,23.0922276 50.1656911,20.1585691 C50.1656911,17.2600325 52.3373984,14.9023089 55.0066667,14.9023089 M61.6541463,11.4171057 C60.7068293,11.4171057 59.9305691,12.1497886 59.8821138,13.0684878 C58.4847154,12.0109268 56.776748,11.4171057 55.0066667,11.4171057 C50.4154472,11.4171057 46.6801626,15.3387317 46.6801626,20.1585691 C46.6801626,24.9962927 50.4154472,28.9325528 55.0066667,28.9325528 C56.7744715,28.9325528 58.4704065,28.3507642 59.8541463,27.3133659 C59.6066667,29.7810081 57.5663415,31.6470244 55.0066667,31.6470244 C54.2313821,31.6470244 53.58,31.5032846 52.8993496,31.1810081 C52.6473171,31.043122 52.3676423,30.9706016 52.0873171,30.9706016 C51.4339837,30.9706016 50.8492683,31.3497886 50.5546341,31.9624715 C50.1598374,32.7244228 50.4278049,33.689626 51.1874797,34.2210081 L51.2668293,34.2766179 L51.3556098,34.3153171 C52.6121951,34.8652358 53.8063415,35.1325528 55.0066667,35.1325528 C59.6154472,35.1325528 63.3647154,31.3975935 63.3647154,26.8060488 L63.3647154,13.1595447 C63.3647154,12.2148293 62.581626,11.4171057 61.6541463,11.4171057" id="Fill-1" fill="#292929"></path>
                        <path d="M69.8037398,6.30347967 C68.8430894,6.30347967 68.061626,7.08526829 68.061626,8.0462439 L68.061626,8.78152846 C68.061626,9.77762602 68.8430894,10.5880325 69.8037398,10.5880325 C70.7822764,10.5880325 71.578374,9.77762602 71.578374,8.78152846 L71.578374,8.0462439 C71.578374,7.08526829 70.7822764,6.30347967 69.8037398,6.30347967" id="Fill-3" fill="#292929"></path>
                        <path d="M69.8037398,11.4171707 C68.8268293,11.4171707 68.061626,12.1826992 68.061626,13.1592846 L68.061626,27.2854634 C68.061626,28.246439 68.8430894,29.0282276 69.8037398,29.0282276 C70.7822764,29.0282276 71.578374,28.246439 71.578374,27.2854634 L71.578374,13.1592846 C71.578374,12.1826992 70.7988618,11.4171707 69.8037398,11.4171707" id="Fill-5" fill="#292929"></path>
                        <path d="M86.4465691,19.6307642 L86.3873821,19.5949919 C85.1132358,18.8827967 83.7607154,18.4275122 82.2520976,18.2027967 L82.1210407,18.1923902 C80.6641301,17.9572683 79.854374,17.5787317 79.4254309,17.2935285 C78.9662439,16.9250732 78.9291707,16.7302764 78.9291707,16.5149919 C78.9291707,16.1797073 79.156813,15.804748 79.5581138,15.4840976 C80.0979512,15.0470244 80.9353496,14.806374 81.9164878,14.806374 C83.1103089,14.806374 84.0371382,15.4249106 85.1099837,16.1416585 L85.2277073,16.2197073 C85.5080325,16.3985691 85.8329106,16.492878 86.1668943,16.492878 C86.7652683,16.492878 87.3122602,16.1956423 87.6296585,15.6967805 C88.1307967,14.9091382 87.9229919,13.8554797 87.156813,13.2974309 L87.051122,13.2284878 C85.7737236,12.4213333 84.1834797,11.4171057 81.9164878,11.4171057 C80.2085203,11.4171057 78.6907967,11.8414959 77.5272195,12.6444228 L77.5002276,12.663935 C76.1730732,13.648 75.4120976,15.0515772 75.4120976,16.5149919 C75.4120976,17.9979187 76.211122,19.3530407 77.551935,20.1481626 C78.6068943,20.8866992 79.9766504,21.2278374 81.3164878,21.4769431 L81.3880325,21.5123902 L81.5330732,21.5364553 C83.2277073,21.8187317 84.0309593,22.2070244 84.4078699,22.4876748 C85.0683577,23.0466992 85.1418537,23.3211707 85.1590894,23.6606829 C85.1506341,24.0411707 84.8794146,24.4359675 84.4114472,24.7478374 L84.3346992,24.804748 C83.7610407,25.2740163 82.9031545,25.5429593 81.9805528,25.5429593 C80.6602276,25.5429593 79.2472195,24.9975935 77.7805528,23.9224715 C77.4660813,23.6740163 77.0777886,23.5374309 76.6839675,23.5374309 C76.156813,23.5374309 75.6664065,23.772878 75.3373008,24.183935 C74.7529106,24.9159675 74.8397398,25.907187 75.5434797,26.5403577 L75.5864065,26.5771057 C77.5841301,28.1751545 79.731122,28.9998699 81.9681951,29.0281626 L81.9805528,29.0281626 C83.6553496,29.0281626 85.1616911,28.5449106 86.4683577,27.583935 C87.8920976,26.505561 88.6449431,25.1423089 88.6449431,23.6421463 C88.6449431,22.0574309 87.8026667,20.5201951 86.4465691,19.6307642" id="Fill-7" fill="#292929"></path>
                        <path d="M97.2891382,11.4171707 L96.2514146,11.4171707 L96.2514146,6.57619512 C96.2514146,5.64773984 95.407187,4.83343089 94.4449106,4.83343089 C93.5164553,4.83343089 92.7024715,5.64773984 92.7024715,6.57619512 L92.7024715,11.4171707 L91.7278374,11.4171707 C90.212065,11.4171707 89.9857236,12.508878 89.9857236,13.1592846 C89.9857236,13.8103415 90.212065,14.902374 91.7278374,14.902374 L92.7024715,14.902374 L92.7024715,25.3361951 C92.7024715,27.4409106 94.303122,29.0282276 96.426374,29.0282276 C97.3548293,29.0282276 98.2006829,28.1976585 98.2006829,27.2854634 C98.2006829,26.3670894 97.3733659,25.5296911 96.4566179,25.5114797 C96.403935,25.4961951 96.2514146,25.4217236 96.2514146,25.3361951 L96.2514146,14.902374 L97.2891382,14.902374 C98.2172683,14.902374 99.0315772,14.088065 99.0315772,13.1592846 C99.0315772,12.2314797 98.2172683,11.4171707 97.2891382,11.4171707" id="Fill-9" fill="#292929"></path>
                        <path d="M105.374732,11.4171707 C104.397496,11.4171707 103.632293,12.1826992 103.632293,13.1592846 L103.632293,27.2854634 C103.632293,28.246439 104.413756,29.0282276 105.374732,29.0282276 C106.353268,29.0282276 107.149366,28.246439 107.149366,27.2854634 L107.149366,13.1592846 C107.149366,12.1826992 106.369854,11.4171707 105.374732,11.4171707" id="Fill-11" fill="#292929"></path>
                        <path d="M105.374732,6.30347967 C104.413756,6.30347967 103.632293,7.08526829 103.632293,8.0462439 L103.632293,8.78152846 C103.632293,9.77762602 104.413756,10.5880325 105.374732,10.5880325 C106.353268,10.5880325 107.149366,9.77762602 107.149366,8.78152846 L107.149366,8.0462439 C107.149366,7.08526829 106.353268,6.30347967 105.374732,6.30347967" id="Fill-13" fill="#292929"></path>
                        <g id="Group-17" transform="translate(109.918699, 11.116098)">
                            <mask id="mask-2" fill="white">
                                <use xlink:href="#path-1"></use>
                            </mask>
                            <g id="Clip-16"></g>
                            <path d="M8.55912195,14.4267642 C5.85505691,14.4267642 3.65473171,12.0400976 3.65473171,9.10643902 C3.65473171,6.15521951 5.85505691,3.75456911 8.55912195,3.75456911 C11.2635122,3.75456911 13.4641626,6.15521951 13.4641626,9.10643902 C13.4641626,12.0400976 11.2635122,14.4267642 8.55912195,14.4267642 M15.2069268,0.300910569 C14.2544065,0.300910569 13.5025366,1.02871545 13.4654634,1.97050407 C12.0508293,0.901886179 10.3301789,0.300910569 8.55912195,0.300910569 C3.93278049,0.300910569 0.169203252,4.25115447 0.169203252,9.10643902 C0.169203252,13.9620488 3.93278049,17.9122927 8.55912195,17.9122927 C10.3243252,17.9122927 12.0449756,17.3035122 13.464813,16.2209106 C13.4921301,17.1578211 14.263187,17.9122927 15.2069268,17.9122927 C16.1679024,17.9122927 16.9496911,17.1301789 16.9496911,16.1692033 L16.9496911,2.04334959 C16.9496911,1.06643902 16.1841626,0.300910569 15.2069268,0.300910569" id="Fill-15" fill="#292929" mask="url(#mask-2)"></path>
                        </g>
                        <path d="M28.3965203,28.3957073 C23.685626,33.105626 16.048878,33.1062764 11.3392846,28.3957073 C6.62741463,23.6851382 6.62806504,16.0487154 11.3392846,11.3378211 C14.9587967,7.71765854 20.3051382,6.88286179 24.7253008,8.82595122 L30.519122,3.09261789 C22.8352195,-1.7964878 12.5269268,-0.889170732 5.81928455,5.81814634 C-1.93941463,13.5765203 -1.93973984,26.1560325 5.81928455,33.9153821 C13.5783089,41.6734309 26.1571707,41.6734309 33.9161951,33.9153821 C40.6365203,27.1947317 41.5337561,16.8574959 36.6114797,9.16871545 L30.8482276,14.8724553 C32.8693659,19.3186341 32.0527805,24.7384715 28.3965203,28.3957073" id="Fill-18" fill="#E33E26"></path>
                        <path d="M25.4773333,19.5469268 C24.3735935,22.3043252 22.8331057,24.9309919 19.8675772,25.0838374 C16.9013984,25.2376585 14.3719675,22.9566829 14.219122,19.9911545 C14.0653008,17.025626 16.4152195,15.2874146 19.2893659,14.1970081 C20.8090407,13.6217236 26.0376585,11.9348943 26.9160325,12.9957073 C27.7030244,13.9469268 26.1583089,17.8438374 25.4773333,19.5469268" id="Fill-20" fill="#E33E26"></path>
                    </g>
                </g>
            </g>
        </g>
    </g>
</svg>