<?xml version="1.0" encoding="UTF-8"?>
<svg width="16px" height="15px" viewBox="0 0 16 15" version="1.1" xmlns="http://www.w3.org/2000/svg" xmlns:xlink="http://www.w3.org/1999/xlink">
    <!-- Generator: Sketch 42 (36781) - http://www.bohemiancoding.com/sketch -->
    <title>Fill 34</title>
    <desc>Created with Sketch.</desc>
    <defs></defs>
    <g id="Page-1-Copy" stroke="none" stroke-width="1" fill="none" fill-rule="evenodd" opacity="0.2">
        <g id="Home" transform="translate(-1181.000000, -72.000000)" fill="#000000">
            <g id="Header" transform="translate(206.000000, 50.000000)">
                <g id="Social-media" transform="translate(860.000000, 22.000000)">
                    <path d="M122.689457,0 C118.44317,0 115,3.44268897 115,7.69041829 C115,11.0874483 117.203167,13.969733 120.259437,14.9867273 C120.643934,15.0573786 120.784275,14.8199517 120.784275,14.6161684 C120.784275,14.4335324 120.777546,13.9500275 120.773701,13.3083984 C118.634457,13.773159 118.183154,12.2774661 118.183154,12.2774661 C117.833742,11.3892783 117.32957,11.1528127 117.32957,11.1528127 C116.631228,10.675556 117.382439,10.6851684 117.382439,10.6851684 C118.153836,10.7394786 118.559961,11.4777126 118.559961,11.4777126 C119.246287,12.6528312 120.359887,12.3135127 120.798213,12.116458 C120.867903,11.6194958 121.06688,11.2806579 121.286524,11.0884095 C119.578877,10.8942386 117.783757,10.2348264 117.783757,7.28813842 C117.783757,6.44849335 118.083184,5.76216642 118.57534,5.2243514 C118.496038,5.02969985 118.232177,4.24820994 118.650317,3.18940165 C118.650317,3.18940165 119.296272,2.98273457 120.76505,3.97762026 C121.378803,3.80699977 122.036293,3.72192983 122.690418,3.71856548 C123.343582,3.72192983 124.001553,3.80699977 124.615786,3.97762026 C126.083603,2.98273457 126.728116,3.18940165 126.728116,3.18940165 C127.147698,4.24820994 126.883837,5.02969985 126.804535,5.2243514 C127.297652,5.76216642 127.595157,6.44849335 127.595157,7.28813842 C127.595157,10.2420357 125.797153,10.8923161 124.084219,11.082642 C124.360096,11.3200689 124.606174,11.7891551 124.606174,12.5067224 C124.606174,13.5347709 124.596562,14.3638423 124.596562,14.6161684 C124.596562,14.8218742 124.73498,15.0612235 125.125245,14.985766 C128.178631,13.9668493 130.379875,11.086487 130.379875,7.69041829 C130.379875,3.44268897 126.936706,0 122.689457,0" id="Fill-34"></path>
                </g>
            </g>
        </g>
    </g>
</svg>