<?xml version="1.0" encoding="UTF-8"?>
<svg width="198px" height="34px" viewBox="0 0 198 34" version="1.1" xmlns="http://www.w3.org/2000/svg" xmlns:xlink="http://www.w3.org/1999/xlink">
    <!-- Generator: Sketch 42 (36781) - http://www.bohemiancoding.com/sketch -->
    <title>Page 1</title>
    <desc>Created with Sketch.</desc>
    <defs>
        <polygon id="path-1" points="0 33.6735268 197.800783 33.6735268 197.800783 0 0 0"></polygon>
    </defs>
    <g id="Page-1-Copy" stroke="none" stroke-width="1" fill="none" fill-rule="evenodd">
        <g id="About" transform="translate(-707.000000, -1045.000000)">
            <g id="Clients" transform="translate(206.000000, 962.000000)">
                <g id="Launchsolid" transform="translate(501.000000, 83.000000)">
                    <g id="Page-1">
                        <polygon id="Fill-1" fill="#2F4379" points="0 2.69352323 0 20.6634716 13.6827132 20.6634716 13.6827132 16.2994695 4.98038099 16.2994695 4.98038099 2.69352323"></polygon>
                        <g id="Group-21" transform="translate(0.000000, 0.025672)">
                            <path d="M35.196005,12.7566744 L35.196005,2.66780132 L40.2531529,2.66780132 L40.2531529,12.6539861 C40.2531529,15.2468649 41.5624283,16.4791241 43.5648496,16.4791241 C45.5670215,16.4791241 46.876297,15.2979598 46.876297,12.7823464 L46.876297,2.66780132 L51.9336941,2.66780132 L51.9336941,12.628314 C51.9336941,18.4302012 48.6219975,20.9714866 43.5135054,20.9714866 C38.4050134,20.9714866 35.196005,18.378857 35.196005,12.7566744 Z" id="Fill-2" fill="#2F4379"></path>
                            <polygon id="Fill-4" fill="#2F4379" points="55.5282072 2.66792594 60.1748513 2.66792594 67.5681574 12.1663415 67.5681574 2.66792594 72.496945 2.66792594 72.496945 20.6378743 68.1326936 20.6378743 60.4569948 10.7800498 60.4569948 20.6378743 55.5282072 20.6378743"></polygon>
                            <path d="M75.7062026,11.7042193 L75.7062026,11.6528752 C75.7062026,6.41577354 79.7364679,2.30874132 85.1789461,2.30874132 C88.8498024,2.30874132 91.2116325,3.84881609 92.8033007,6.05661385 L89.0551789,8.95730817 C88.0282962,7.67370482 86.8473812,6.85244793 85.1276019,6.85244793 C82.6117394,6.85244793 80.8403667,8.98298024 80.8403667,11.6015311 L80.8403667,11.6528752 C80.8403667,14.348193 82.6117394,16.4533025 85.1276019,16.4533025 C87.0014136,16.4533025 88.1053124,15.5804522 89.1835393,14.271426 L92.931661,16.9410717 C91.2373046,19.2772298 88.9524907,20.9970091 84.9735695,20.9970091 C79.8394054,20.9970091 75.7062026,17.0694321 75.7062026,11.7042193" id="Fill-6" fill="#2F4379"></path>
                            <polygon id="Fill-8" fill="#2F4379" points="95.7045932 2.66792594 100.684725 2.66792594 100.684725 9.39350899 107.07707 9.39350899 107.07707 2.66792594 112.057201 2.66792594 112.057201 20.6378743 107.07707 20.6378743 107.07707 13.8093537 100.684725 13.8093537 100.684725 20.6378743 95.7045932 20.6378743"></polygon>
                            <path d="M114.52172,17.9679046 L117.294303,14.6564572 C119.065426,16.0681716 121.042176,16.8126616 123.121613,16.8126616 C124.45656,16.8126616 125.175378,16.3505644 125.175378,15.5804024 L125.175378,15.5293075 C125.175378,14.7848175 124.584921,14.3740644 122.146074,13.809279 C118.321186,12.9364287 115.368898,11.8582019 115.368898,8.16142425 L115.368898,8.11008011 C115.368898,4.77296066 118.013121,2.35978636 122.326028,2.35978636 C125.380755,2.35978636 127.768008,3.1812925 129.719334,4.74728859 L127.228894,8.26411252 C125.586131,7.10911875 123.789087,6.4927399 122.197419,6.4927399 C120.990831,6.4927399 120.400623,7.00643048 120.400623,7.64823215 L120.400623,7.69957629 C120.400623,8.52108243 121.016753,8.88049137 123.506694,9.44527684 C127.639897,10.3435499 130.207103,11.6787467 130.207103,15.0415382 L130.207103,15.0928823 C130.207103,18.7637387 127.30616,20.9458643 122.941908,20.9458643 C119.758821,20.9458643 116.729518,19.9446537 114.52172,17.9679046" id="Fill-10" fill="#2F4379"></path>
                            <path d="M146.91922,11.7042193 L146.91922,11.6528752 C146.91922,9.06024568 145.045159,6.80085455 142.298497,6.80085455 C139.577258,6.80085455 137.754542,9.00865231 137.754542,11.6015311 L137.754542,11.6528752 C137.754542,14.2455047 139.628602,16.5048959 142.349842,16.5048959 C145.096753,16.5048959 146.91922,14.2968489 146.91922,11.7042193 M132.646049,11.7042193 L132.646049,11.6528752 C132.646049,6.49278975 136.804924,2.30874132 142.349842,2.30874132 C147.894759,2.30874132 152.002289,6.44169485 152.002289,11.6015311 L152.002289,11.6528752 C152.002289,16.8127114 147.843415,20.9970091 142.298497,20.9970091 C136.75358,20.9970091 132.646049,16.8640555 132.646049,11.7042193" id="Fill-12" fill="#2F4379"></path>
                            <polygon id="Fill-14" fill="#2F4379" points="155.237493 2.66792594 160.217625 2.66792594 160.217625 16.2736229 168.920207 16.2736229 168.920207 20.6378743 155.237493 20.6378743"></polygon>
                            <mask id="mask-2" fill="white">
                                <use xlink:href="#path-1"></use>
                            </mask>
                            <g id="Clip-17"></g>
                            <polygon id="Fill-16" fill="#2F4379" mask="url(#mask-2)" points="171.795976 20.6378494 176.80178 20.6378494 176.80178 2.66790101 171.795976 2.66790101"></polygon>
                            <path d="M187.737707,16.2224782 C190.715417,16.2224782 192.692167,14.5794659 192.692167,11.6787716 L192.692167,11.6271782 C192.692167,8.75190671 190.715417,7.08322236 187.737707,7.08322236 L185.709614,7.08322236 L185.709614,16.2224782 L187.737707,16.2224782 Z M180.729482,2.66787609 L187.660691,2.66787609 C194.078458,2.66787609 197.800908,6.36465373 197.800908,11.550162 L197.800908,11.6015061 C197.800908,16.7872637 194.027114,20.6378245 187.558002,20.6378245 L180.729482,20.6378245 L180.729482,2.66787609 Z" id="Fill-18" fill="#2F4379" mask="url(#mask-2)"></path>
                            <path d="M24.5591205,22.8388677 C24.5591205,22.8388677 22.0806445,22.7125013 22.0806445,27.1652341 C22.0806445,27.1652341 22.1230158,29.1397401 23.5930532,30.1898024 C25.0630906,31.2401139 24.1391455,33.8970482 24.1391455,33.8970482 C24.1391455,33.8970482 27.2058359,32.9623856 27.2058359,27.1652341 C27.2058359,22.6716254 24.6433648,22.8383692 24.6433648,22.8383692 L24.5591205,22.8388677 Z" id="Fill-19" fill="#FF6326" mask="url(#mask-2)"></path>
                            <path d="M26.6377604,16.4230443 L22.6192095,16.4230443 C22.6192095,16.4230443 22.3440449,9.61521097 24.5353926,8.3475592 L24.6281111,8.35428877 L24.7210789,8.30693253 C26.9124266,9.57483354 26.6377604,16.4230443 26.6377604,16.4230443 L26.6377604,16.4230443 Z M30.8719067,17.1814919 L30.8709097,16.9232758 C30.9980239,5.83717999 24.5256721,0.223720847 24.5256721,0.223720847 C24.5256721,0.223720847 18.0032224,5.864846 18.130835,16.9504433 L18.128841,17.4093003 L15.168079,19.7113121 L19.6596938,26.7995442 C19.6596938,26.7995442 20.3585722,21.6571551 24.1184084,21.6571551 L25.1071568,21.6571551 C28.8672423,21.6571551 29.5661207,26.7995442 29.5661207,26.7995442 L34.0577354,19.6268186 L30.8719067,17.1814919 Z" id="Fill-20" fill="#243259" mask="url(#mask-2)"></path>
                        </g>
                    </g>
                </g>
            </g>
        </g>
    </g>
</svg>