<?xml version="1.0" encoding="UTF-8"?>
<svg width="16px" height="15px" viewBox="0 0 16 15" version="1.1" xmlns="http://www.w3.org/2000/svg" xmlns:xlink="http://www.w3.org/1999/xlink">
    <!-- Generator: Sketch 42 (36781) - http://www.bohemiancoding.com/sketch -->
    <title>in</title>
    <desc>Created with Sketch.</desc>
    <defs></defs>
    <g id="Page-1-Copy" stroke="none" stroke-width="1" fill="none" fill-rule="evenodd" opacity="0.2">
        <g id="Home" transform="translate(-1216.000000, -72.000000)" fill-rule="nonzero" fill="#000000">
            <g id="Header" transform="translate(206.000000, 50.000000)">
                <g id="Social-media" transform="translate(860.000000, 22.000000)">
                    <g id="in" transform="translate(150.000000, 0.000000)">
                        <path d="M0.260617761,4.98069498 L3.37644788,4.98069498 L3.37644788,15 L0.260617761,15 L0.260617761,4.98069498 Z M1.82432432,0 C2.82046332,0 3.63127413,0.810810811 3.63127413,1.80694981 C3.63127413,2.8030888 2.82046332,3.61389961 1.82432432,3.61389961 C0.822393822,3.61389961 0.0173745174,2.8030888 0.0173745174,1.80694981 C0.0173745174,0.810810811 0.822393822,0 1.82432432,0 L1.82432432,0 Z" id="XMLID_195_"></path>
                        <path d="M5.33397683,4.98069498 L8.31660232,4.98069498 L8.31660232,6.35328185 L8.35714286,6.35328185 C8.77413127,5.56563707 9.78764479,4.73745174 11.3050193,4.73745174 C14.4555985,4.73745174 15.0405405,6.81081081 15.0405405,9.50965251 L15.0405405,15 L11.9305019,15 L11.9305019,10.1293436 C11.9305019,8.96525097 11.9131274,7.47104247 10.3146718,7.47104247 C8.69305019,7.47104247 8.44980695,8.73938224 8.44980695,10.042471 L8.44980695,15 L5.33976834,15 L5.33976834,4.98069498 L5.33397683,4.98069498 Z" id="XMLID_192_"></path>
                    </g>
                </g>
            </g>
        </g>
    </g>
</svg>