<?xml version="1.0" encoding="UTF-8"?>
<svg width="19px" height="15px" viewBox="0 0 19 15" version="1.1" xmlns="http://www.w3.org/2000/svg" xmlns:xlink="http://www.w3.org/1999/xlink">
    <!-- Generator: Sketch 42 (36781) - http://www.bohemiancoding.com/sketch -->
    <title>Fill 1</title>
    <desc>Created with Sketch.</desc>
    <defs></defs>
    <g id="Page-1-Copy" stroke="none" stroke-width="1" fill="none" fill-rule="evenodd" opacity="0.2">
        <g id="Home" transform="translate(-1066.000000, -72.000000)" fill="#000000">
            <g id="Header" transform="translate(206.000000, 50.000000)">
                <g id="Social-media" transform="translate(860.000000, 22.000000)">
                    <path d="M16.6819842,2.37185157 C17.4641415,1.90290329 18.064603,1.16112286 18.3472409,0.276869833 C17.6158431,0.710632571 16.8048452,1.02557201 15.9425111,1.19573159 C15.2514901,0.459719285 14.2674486,0 13.1784272,0 C11.0869064,0 9.39165545,1.69525091 9.39165545,3.78677177 C9.39165545,4.08325322 9.42511056,4.37223611 9.48971352,4.64968275 C6.34204961,4.49163622 3.55200923,2.98384926 1.68429148,0.692751394 C1.35839262,1.25225918 1.17150548,1.90290329 1.17150548,2.59680831 C1.17150548,3.91020958 1.84003076,5.069602 2.85579696,5.7485099 C2.23514709,5.72889829 1.65141319,5.5587387 1.14093444,5.27494713 C1.14035762,5.29109787 1.14035762,5.30667179 1.14035762,5.32282253 C1.14035762,7.15766199 2.44568352,8.68794463 4.17842723,9.03576235 C3.86060373,9.12228418 3.52605268,9.16842915 3.1805422,9.16842915 C2.93655066,9.16842915 2.69948087,9.14477985 2.4681792,9.10094213 C2.94981734,10.6052682 4.34858681,11.7000577 6.00576812,11.7306287 C4.70967122,12.7463949 3.07671602,13.3514709 1.30244184,13.3514709 C0.996731398,13.3514709 0.695635455,13.3335897 0.399154009,13.298981 C2.07479331,14.3730052 4.06537204,15 6.2041915,15 C13.169775,15 16.9784657,9.22957124 16.9784657,4.22572582 C16.9784657,4.06133436 16.9750048,3.89809652 16.9675062,3.73543549 C17.7075562,3.20188425 18.3495482,2.53508941 18.8571429,1.7754278 C18.178235,2.07652375 17.4479908,2.28013843 16.6819842,2.37185157 Z" id="Fill-1"></path>
                </g>
            </g>
        </g>
    </g>
</svg>