<?xml version="1.0" encoding="UTF-8"?>
<svg width="179px" height="37px" viewBox="0 0 179 37" version="1.1" xmlns="http://www.w3.org/2000/svg" xmlns:xlink="http://www.w3.org/1999/xlink">
    <!-- Generator: Sketch 42 (36781) - http://www.bohemiancoding.com/sketch -->
    <title>Page 1</title>
    <desc>Created with Sketch.</desc>
    <defs>
        <polygon id="path-1" points="18.0363615 0.1406 0.0415538462 0.1406 0.0415538462 28.1276277 18.0363615 28.1276277 18.0363615 0.1406"></polygon>
        <polygon id="path-3" points="14.5449846 18.1272677 14.5449846 0.249721538 0.0636684615 0.249721538 0.0636684615 18.1272677 14.5449846 18.1272677"></polygon>
    </defs>
    <g id="Page-1-Copy" stroke="none" stroke-width="1" fill="none" fill-rule="evenodd">
        <g id="About" transform="translate(-433.000000, -1168.000000)">
            <g id="Clients" transform="translate(206.000000, 962.000000)">
                <g id="Webbynode" transform="translate(227.000000, 206.000000)">
                    <g id="Page-1">
                        <path d="M26.6600369,14.2586046 C25.6840908,16.9129277 22.4443138,24.5636738 22.0930985,27.7251815 C21.1954215,27.8424431 20.2977446,27.9597046 19.3997831,27.9597046 C18.8143292,27.9597046 18.1116138,27.9984123 17.5651523,27.7251815 C16.4332369,27.1400123 15.7695138,24.2511662 15.4572908,23.1585277 C14.9890985,21.5968431 14.4813446,20.07472 13.97416,18.5523123 C13.3104369,19.8794738 12.8029677,21.3236123 12.2565062,22.6900508 C11.5930677,24.3294354 10.7733754,25.9298277 10.4218754,27.6864738 C9.56319077,27.8034508 8.74349846,27.9597046 7.88481385,27.9597046 C4.80100615,27.9597046 4.56676769,24.75892 4.05958308,22.3388354 C3.35686769,18.9817969 1.67849077,13.9463815 0.000113846154,10.9798354 C1.01476769,10.6676123 1.75647538,10.4723662 2.84939846,10.4723662 C6.32341385,10.4723662 6.63563692,11.6825508 7.41633692,14.8443431 C8.04106769,17.3424123 8.58724462,19.8794738 9.25096769,22.3388354 C10.3438908,19.6842277 11.4368138,16.9911969 12.4517523,14.2975969 C11.9832754,13.0876969 11.5930677,11.9557815 10.85136,10.9018508 C11.9052908,10.5893431 12.9592215,10.3943815 14.0521446,10.3943815 C17.2139369,10.3943815 17.3699062,11.83852 18.1506062,14.60982 C18.8923138,17.2251508 19.51676,19.9574585 20.4147215,22.5337969 C21.1954215,20.3479508 23.1860215,14.5318354 23.1860215,12.2680046 C23.1860215,11.7605354 23.0690446,11.2530662 22.9517831,10.7455969 C23.6155062,10.5893431 24.2399523,10.4333738 24.9426677,10.4333738 C26.19156,10.4333738 27.0895215,10.9018508 27.0895215,12.2680046 C27.0895215,12.9314431 26.8942754,13.6341585 26.6600369,14.2586046" id="Fill-1" fill="#449DC1"></path>
                        <path d="M36.6128092,12.9706062 C34.2317169,12.9706062 33.5292862,15.9371523 33.3730323,17.8107754 C33.76324,17.8497677 34.1927246,17.9277523 34.5832169,17.9277523 C36.3005862,17.9277523 38.6036938,17.1863292 38.6036938,15.11746 C38.6036938,13.9462677 37.8227092,12.9706062 36.6128092,12.9706062 M35.7931169,20.0356138 C34.9734246,20.0356138 34.2317169,19.9576292 33.4510169,19.8013754 L33.4510169,20.5040908 C33.4510169,22.8071985 35.0514092,25.0710292 37.5104862,25.0710292 C39.3841092,25.0710292 40.5942938,24.2123446 41.8824631,22.9631677 C42.1167015,23.4316446 42.3116631,23.9391138 42.3116631,24.4855754 C42.3116631,27.2958677 37.7057323,28.2328215 35.5981554,28.2328215 C30.6017323,28.2328215 28.1813631,25.2269985 28.1813631,20.3871138 C28.1813631,15.11746 31.4214246,10.3552754 37.0422938,10.3552754 C39.9308554,10.3552754 42.6631631,11.9166754 42.6631631,15.11746 C42.6631631,18.8647062 38.8769246,20.0356138 35.7931169,20.0356138" id="Fill-3" fill="#449DC1"></path>
                        <path d="M53.9043323,13.6731223 C50.2740631,13.6731223 50.3130554,19.0597531 50.3130554,21.5581069 C50.3130554,23.43173 50.3130554,25.3833377 52.6551554,25.3833377 C56.0121938,25.3833377 56.7149092,21.1286223 56.7149092,18.5522838 C56.7149092,16.6006762 56.4806708,13.6731223 53.9043323,13.6731223 M51.7184862,28.3108915 C48.0102323,28.3108915 45.3559092,27.3349454 45.3559092,23.43173 C45.3559092,22.1435608 45.5121631,20.8163992 45.5121631,19.52823 L45.5121631,14.0636146 C45.5121631,9.92587615 45.7461169,4.81247615 44.7704554,0.675022308 C45.7071246,0.557760769 46.6440785,0.440783846 47.5807477,0.440783846 C49.8448631,0.440783846 50.74254,1.33846077 50.74254,3.60257615 C50.74254,6.76408385 50.4303169,9.92587615 50.4303169,13.0876685 C51.8744554,11.2530377 53.6311015,10.2770915 55.9732015,10.2770915 C60.1496477,10.2770915 62.0625477,13.63413 62.0625477,17.4593608 C62.0625477,23.6659685 58.0807785,28.3108915 51.7184862,28.3108915" id="Fill-5" fill="#449DC1"></path>
                        <path d="M73.8888292,13.6731223 C70.25856,13.6731223 70.2978369,19.0597531 70.2978369,21.5581069 C70.2978369,23.43173 70.2978369,25.3833377 72.6396523,25.3833377 C75.9966908,25.3833377 76.6991215,21.1286223 76.6991215,18.5522838 C76.6991215,16.6006762 76.4651677,13.6731223 73.8888292,13.6731223 M71.7026985,28.3108915 C67.9947292,28.3108915 65.3404062,27.3349454 65.3404062,23.43173 C65.3404062,22.1435608 65.49666,20.8163992 65.49666,19.52823 L65.49666,14.0636146 C65.49666,9.92587615 65.7306138,4.81247615 64.7549523,0.675022308 C65.6916215,0.557760769 66.6282908,0.440783846 67.5652446,0.440783846 C69.8290754,0.440783846 70.7270369,1.33846077 70.7270369,3.60257615 C70.7270369,6.76408385 70.4148138,9.92587615 70.4148138,13.0876685 C71.8589523,11.2530377 73.6155985,10.2770915 75.9576985,10.2770915 C80.1341446,10.2770915 82.04676,13.63413 82.04676,17.4593608 C82.04676,23.6659685 78.06556,28.3108915 71.7026985,28.3108915" id="Fill-7" fill="#449DC1"></path>
                        <g id="Group-11" transform="translate(82.538462, 10.390169)" fill="#449DC1">
                            <path d="M16.5263062,17.8815592 C15.0038985,22.6047515 11.1396754,26.4692592 5.94800615,26.4692592 C4.11366,26.4692592 0.21016,25.8055362 0.21016,23.3461746 C0.21016,22.4484977 0.639644615,21.5898131 1.06884462,20.8481054 C2.63024462,22.2925285 4.11366,23.0729438 6.26051385,23.0729438 C10.3199831,23.0729438 11.56916,19.9504285 12.1933215,16.4374208 C10.78846,17.2961054 10.00776,17.6476054 8.36837538,17.6476054 C2.82549077,17.6476054 3.02073692,11.7535054 2.70822923,7.69375154 C2.51326769,5.15669 2.27874462,2.97055923 1.38106769,0.589751538 C2.39629077,0.199259231 3.05972923,0.0822823077 4.15236769,0.0822823077 C5.16759077,0.0822823077 6.37749077,0.199259231 7.04121385,1.01895154 C9.10979846,3.51702077 6.33849846,14.2905669 10.3979677,14.2905669 C12.1933215,14.2905669 12.77906,12.6119054 13.0522908,11.1287746 C13.4817754,8.90393615 13.6767369,6.56183615 13.6767369,4.29772077 C13.6767369,2.93156692 13.5987523,1.68239 13.3647985,0.355513077 C14.0282369,0.199259231 14.6526831,0.121274615 15.3553985,0.121274615 C18.3609369,0.121274615 18.9856677,0.979959231 18.9856677,3.90722846 C18.9856677,8.00625923 17.7754831,13.9783438 16.5263062,17.8815592" id="Fill-9"></path>
                        </g>
                        <path d="M119.20549,27.8815208 C116.629152,27.8815208 115.65349,27.2957823 115.65349,24.6024669 C115.65349,22.4946054 115.887444,20.3870285 115.887444,18.2791669 C115.887444,16.5228054 116.121682,13.9464669 113.74059,13.9464669 C112.062213,13.9464669 110.891021,15.5075823 110.422828,16.9520054 C109.837375,18.7473592 109.876367,20.7382438 109.876367,22.5728746 C109.876367,24.2905285 109.876367,25.9686208 110.18859,27.6862746 C109.40789,27.7645438 108.666467,27.8815208 107.885767,27.8815208 C105.465682,27.8815208 104.645705,27.0618285 104.645705,24.6417438 C104.645705,22.6901362 104.840952,20.7382438 104.840952,18.7866362 C104.840952,16.1713054 104.801959,13.4389977 104.021259,10.9016515 C104.919221,10.70669 105.816898,10.5114438 106.753567,10.5114438 C109.446882,10.5114438 109.603136,11.9555823 109.876367,14.1807054 C111.320505,11.7603362 113.233405,10.2772054 116.121682,10.2772054 C121.859528,10.2772054 120.922859,15.3516131 120.922859,19.3330977 C120.922859,22.0654054 121.079113,24.8756977 121.508598,27.5690131 C120.727898,27.8035362 120.025182,27.8815208 119.20549,27.8815208" id="Fill-12" fill="#449DC1"></path>
                        <path d="M133.25698,25.4614362 C136.301795,25.4614362 136.614018,21.5579362 136.614018,19.3330977 C136.614018,17.0692669 136.301795,13.2047592 133.25698,13.2047592 C130.173457,13.2047592 129.822242,16.8347438 129.822242,19.1768438 C129.822242,21.5579362 130.05648,25.4614362 133.25698,25.4614362 M133.023026,28.3497131 C127.792365,28.3497131 124.435611,24.9539669 124.435611,19.7233054 C124.435611,14.1807054 127.636111,10.2382131 133.374242,10.2382131 C138.643895,10.2382131 142.000649,13.4000054 142.000649,18.7083669 C142.000649,24.3292362 138.877849,28.3497131 133.023026,28.3497131" id="Fill-14" fill="#449DC1"></path>
                        <g id="Group-18" transform="translate(144.300000, 0.144015)">
                            <mask id="mask-2" fill="white">
                                <use xlink:href="#path-1"></use>
                            </mask>
                            <g id="Clip-17"></g>
                            <path d="M11.7517692,15.9882123 C11.7517692,14.38782 11.6347923,13.0606585 9.72217692,13.0606585 C6.32643077,13.0606585 5.31120769,17.7838508 5.31120769,20.3991815 C5.31120769,22.2728046 5.74069231,24.8488585 8.12178462,24.8488585 C11.4785385,24.8488585 11.7517692,20.9063662 11.7517692,18.4082969 L11.7517692,15.9882123 Z M8.9022,10.2113738 C10.1123846,10.2113738 10.6588462,10.3673431 11.7517692,10.8748123 L11.7517692,10.0941123 C11.7517692,6.97131231 11.9080231,3.49729692 10.9713538,0.491758462 C11.9080231,0.296796923 12.8057,0.140543077 13.7426538,0.140543077 C15.8502308,0.140543077 16.9824308,1.19447385 16.9824308,3.34132769 C16.9824308,5.64415077 16.7092,7.98625077 16.6312154,10.2893585 C16.5529462,12.2409662 16.5139538,14.1535815 16.5139538,16.1051892 C16.5139538,18.6032585 16.4749615,21.2188738 16.7871846,23.7169431 C16.9824308,25.1610815 17.2949385,25.9027892 18.0363615,27.1519662 C16.9824308,27.6984277 16.0064846,27.8936738 14.8355769,27.8936738 C12.9619538,27.8936738 12.3762154,27.2299508 12.0642769,25.4343123 C10.5025923,27.1519662 8.59026154,28.1276277 6.24816154,28.1276277 C1.83719231,28.1276277 0.0415538462,24.8098662 0.0415538462,20.7893892 C0.0415538462,15.5587277 3.16435385,10.2113738 8.9022,10.2113738 L8.9022,10.2113738 Z" id="Fill-16" fill="#449DC1" mask="url(#mask-2)"></path>
                        </g>
                        <g id="Group-21" transform="translate(164.223077, 10.105554)">
                            <mask id="mask-4" fill="white">
                                <use xlink:href="#path-3"></use>
                            </mask>
                            <g id="Clip-20"></g>
                            <path d="M8.49511462,2.86505231 C6.11402231,2.86505231 5.41130692,5.83159846 5.25505308,7.70522154 C5.64554538,7.74421385 6.07474538,7.82219846 6.46523769,7.82219846 C8.18260692,7.82219846 10.4857146,7.08077538 10.4857146,5.01190615 C10.4857146,3.84071385 9.70501462,2.86505231 8.49511462,2.86505231 M7.67513769,9.93006 C6.85544538,9.93006 6.11402231,9.85207538 5.33332231,9.69582154 L5.33332231,10.3985369 C5.33332231,12.7016446 6.93371462,14.9654754 9.39279154,14.9654754 C11.2664146,14.9654754 12.4763146,14.1067908 13.7647685,12.8576138 C13.9987223,13.3260908 14.1939685,13.83356 14.1939685,14.3800215 C14.1939685,17.1903138 9.58803769,18.1272677 7.48017615,18.1272677 C2.48375308,18.1272677 0.0636684615,15.1214446 0.0636684615,10.28156 C0.0636684615,5.01190615 3.30344538,0.249721538 8.92431462,0.249721538 C11.8128762,0.249721538 14.5451838,1.81112154 14.5451838,5.01190615 C14.5451838,8.75915231 10.7589454,9.93006 7.67513769,9.93006" id="Fill-19" fill="#449DC1" mask="url(#mask-4)"></path>
                        </g>
                    </g>
                </g>
            </g>
        </g>
    </g>
</svg>