<?xml version="1.0" encoding="UTF-8"?>
<svg width="15px" height="15px" viewBox="0 0 15 15" version="1.1" xmlns="http://www.w3.org/2000/svg" xmlns:xlink="http://www.w3.org/1999/xlink">
    <!-- Generator: Sketch 42 (36781) - http://www.bohemiancoding.com/sketch -->
    <title>Fill 9</title>
    <desc>Created with Sketch.</desc>
    <defs></defs>
    <g id="Page-1-Copy" stroke="none" stroke-width="1" fill="none" fill-rule="evenodd" opacity="0.2">
        <g id="Home" transform="translate(-1104.000000, -72.000000)" fill="#000000">
            <g id="Header" transform="translate(206.000000, 50.000000)">
                <g id="Social-media" transform="translate(860.000000, 22.000000)">
                    <path d="M50.4589063,3.4584375 C50.3239063,3.64125 49.2504688,5.0175 46.881875,5.98453125 C47.0309375,6.28921875 47.1739063,6.6 47.3065625,6.9121875 C47.3539063,7.0228125 47.3998438,7.13296875 47.4448438,7.24265625 C49.57625,6.975 51.6945313,7.404375 51.9054688,7.44890625 C51.8914063,5.9371875 51.3509375,4.54875 50.4589063,3.4584375 M43.9990625,1.2815625 C44.1757813,1.51875 45.3396875,3.103125 46.3892188,5.0315625 C48.6673438,4.17796875 49.6315625,2.881875 49.746875,2.7178125 C48.6153125,1.71375 47.1279688,1.1034375 45.5,1.1034375 C44.9834375,1.1034375 44.4804688,1.1653125 43.9990625,1.2815625 M39.2295313,6.19734375 C39.5159375,6.20109375 42.155,6.2128125 45.1517188,5.416875 C44.0904688,3.53015625 42.9453125,1.9434375 42.7765625,1.711875 C40.9845313,2.5575 39.6448438,4.209375 39.2295313,6.19734375 M40.7407813,11.7928125 C40.8860938,11.544375 42.6439063,8.6334375 45.948125,7.565625 C46.0315625,7.5384375 46.1159375,7.513125 46.2003125,7.48921875 C46.0395313,7.12546875 45.8646875,6.76125 45.6809375,6.4021875 C42.4817188,7.359375 39.3776563,7.31953125 39.0973438,7.31390625 C39.0954688,7.3790625 39.0940625,7.44421875 39.0940625,7.509375 C39.0940625,9.1546875 39.7175,10.6570313 40.7407813,11.7928125 M48.0026563,13.4067188 C47.9070313,12.8446875 47.5353125,10.8857813 46.6357813,8.54859375 L46.5935938,8.56265625 C42.9804688,9.82171875 41.6834375,12.3276563 41.568125,12.5634375 C42.6542188,13.4104688 44.0192188,13.9157813 45.5,13.9157813 C46.3873438,13.9157813 47.2334375,13.734375 48.0026563,13.4067188 M51.8253125,8.5265625 C51.6059375,8.4571875 49.8425,7.93125 47.8348437,8.25234375 C48.6729687,10.5548438 49.01375,12.4303125 49.079375,12.8198438 C50.5165625,11.848125 51.5398437,10.30875 51.8253125,8.5265625 M45.5,15 C41.3646875,15 38,11.6353125 38,7.5 C38,3.36421875 41.3646875,0 45.5,0 C49.6357813,0 53,3.36421875 53,7.5 C53,11.6353125 49.6357813,15 45.5,15" id="Fill-9"></path>
                </g>
            </g>
        </g>
    </g>
</svg>