<?xml version="1.0" encoding="UTF-8"?>
<svg width="181px" height="79px" viewBox="0 0 181 79" version="1.1" xmlns="http://www.w3.org/2000/svg" xmlns:xlink="http://www.w3.org/1999/xlink">
    <!-- Generator: Sketch 56.2 (81672) - https://sketch.com -->
    <title>Desktop</title>
    <desc>Created with Sketch.</desc>
    <defs>
        <polyline id="path-1" points="0 0.142461538 49.8589231 0.142461538 49.8589231 50 0 50"></polyline>
        <polyline id="path-3" points="0 0.142461538 49.8589231 0.142461538 49.8589231 50 0 50"></polyline>
    </defs>
    <g id="Desktop" stroke="none" stroke-width="1" fill="none" fill-rule="evenodd">
        <g id="Group" transform="translate(3.000000, 1.000000)">
            <g id="ALL-RIGHTS-RESERVED" opacity="0.3" transform="translate(0.000000, 65.000000)" fill="#000000" font-family="Poppins-Light, Poppins" font-size="8" font-weight="300" letter-spacing="1.77777778">
                <text>
                    <tspan x="0.678222222" y="8">ALL RIGHTS RESERVED 2019-2022</tspan>
                </text>
            </g>
            <g id="Logo" opacity="0.1" transform="translate(62.000000, 0.000000)">
                <g id="Group-3">
                    <g id="Fill-1-Clipped">
                        <mask id="mask-2" fill="white">
                            <use xlink:href="#path-1"></use>
                        </mask>
                        <g id="path-1"></g>
                        <path d="M49.1224462,19.0966769 C48.3179846,15.8383692 46.8999846,12.8334462 44.9078308,10.1651385 L42.4422923,12.0059077 C44.1872154,14.3431385 45.4298308,16.9769846 46.1352154,19.8342154 C47.5339846,25.4994462 46.6429077,31.3703692 43.6261385,36.3652923 C40.6093692,41.3602154 35.8279846,44.8814462 30.1629077,46.2803692 C28.4118308,46.7125231 26.6464462,46.9225231 24.8987538,46.9225231 C18.0990615,46.9220615 11.5846,43.7426769 7.39321538,38.1140615 L4.92536923,39.9517538 C9.70706154,46.3731385 17.1376769,50.0000615 24.8952154,50.0000615 C26.8884462,50.0000615 28.9036769,49.7605231 30.9004462,49.2674462 C37.3635231,47.6717538 42.8182923,43.6545231 46.2599846,37.9559077 C49.7016769,32.2574462 50.7182923,25.5597538 49.1224462,19.0966769" id="Fill-1" fill="#000000" fill-rule="nonzero" mask="url(#mask-2)"></path>
                    </g>
                </g>
                <g id="Group-6">
                    <g id="Fill-4-Clipped">
                        <mask id="mask-4" fill="white">
                            <use xlink:href="#path-3"></use>
                        </mask>
                        <g id="path-3"></g>
                        <path d="M3.7168,30.3078462 C0.829261538,18.6130769 7.99449231,6.74953846 19.6891077,3.86184615 C26.8768,2.08707692 34.4068,4.04415385 39.8321846,9.09676923 L41.9291077,6.84523077 C35.7408,1.08215385 27.1509538,-1.14969231 18.9515692,0.874615385 C5.60972308,4.16892308 -2.56473846,17.7035385 0.729569231,31.0455385 C1.11772308,32.6176923 1.65818462,34.1529231 2.33541538,35.6090769 L5.12526154,34.3112308 C4.53141538,33.0347692 4.05756923,31.6876923 3.7168,30.3078462" id="Fill-4" fill="#000000" fill-rule="nonzero" mask="url(#mask-4)"></path>
                    </g>
                </g>
                <path d="M11.3366923,13.5032308 C8.36253846,16.9961538 6.85976923,21.4433846 7.10546154,26.026 C7.61469231,35.5289231 15.5083846,42.9176923 24.9153077,42.9176923 C25.2353077,42.9176923 25.5576154,42.9090769 25.881,42.8916923 C29.6603846,42.6892308 33.2088462,41.3272308 36.1428462,38.9529231 L34.2073077,36.5610769 C31.7803846,38.5249231 28.8442308,39.6515385 25.7162308,39.8192308 C17.5828462,40.2523077 10.6136154,33.9933846 10.1779231,25.8613846 C9.97469231,22.0689231 11.2180769,18.3884615 13.6794615,15.4981538 L11.3366923,13.5032308 Z" id="Fill-7" fill="#000000" fill-rule="nonzero"></path>
                <path d="M39.9452308,34.7118462 C41.9798462,31.5478462 42.9484615,27.8836923 42.7466154,24.116 C42.22,14.2896923 33.7961538,6.72569231 23.9709231,7.25046154 C21.2153846,7.39815385 18.6058462,8.15215385 16.2147692,9.49138462 L17.7183077,12.1758462 C19.6952308,11.0687692 21.8543077,10.4453846 24.1356923,10.3230769 C32.2670769,9.88338462 39.2383077,16.1486154 39.6741538,24.2807692 C39.8412308,27.3990769 39.04,30.4306154 37.3572308,33.0478462 L39.9452308,34.7118462 Z" id="Fill-9" fill="#000000" fill-rule="nonzero"></path>
                <path d="M23.2285846,18.1966615 C26.2565846,17.4489692 29.3739692,18.7380462 30.9859692,21.4040462 L33.6190462,19.8120462 C31.3061231,15.9866615 26.8342769,14.1371231 22.4910462,15.2094308 C17.0533538,16.5522 13.7218154,22.0683538 15.0644308,27.5060462 C15.7148923,30.1400462 17.3521231,32.3632769 19.6745846,33.7658923 C21.2798154,34.7354308 23.0795077,35.2326615 24.9078154,35.2326615 C25.7247385,35.2326615 26.5475077,35.1334308 27.3608923,34.9325077 C31.7156615,33.8574308 34.8133538,30.1288154 35.0693538,25.6543538 L31.9975077,25.4785077 C31.8190462,28.5969692 29.6593538,31.1957385 26.6233538,31.9454308 C24.7872,32.3986615 22.8844308,32.1098923 21.2653538,31.1322 C19.6462769,30.1543538 18.5050462,28.6045077 18.0516615,26.7683538 C17.5982769,24.9322 17.8870462,23.0294308 18.8648923,21.4103538 C19.8427385,19.7914308 21.3924308,18.6500462 23.2285846,18.1966615" id="Fill-11" fill="#000000" fill-rule="nonzero"></path>
            </g>
        </g>
    </g>
</svg>