<?xml version="1.0" encoding="UTF-8"?>
<svg width="60px" height="60px" viewBox="0 0 60 60" version="1.1" xmlns="http://www.w3.org/2000/svg" xmlns:xlink="http://www.w3.org/1999/xlink">
    <!-- Generator: Sketch 42 (36781) - http://www.bohemiancoding.com/sketch -->
    <title>Logo</title>
    <desc>Created with Sketch.</desc>
    <defs>
        <polyline id="path-1" points="0 0.170953846 59.8307077 0.170953846 59.8307077 60 0 60"></polyline>
        <polyline id="path-3" points="0 0.170953846 59.8307077 0.170953846 59.8307077 60 0 60"></polyline>
    </defs>
    <g id="Page-1-Copy" stroke="none" stroke-width="1" fill="none" fill-rule="evenodd">
        <g id="Home" transform="translate(-206.000000, -50.000000)">
            <g id="Header" transform="translate(206.000000, 50.000000)">
                <g id="Logo">
                    <g id="Group-3">
                        <mask id="mask-2" fill="white">
                            <use xlink:href="#path-1"></use>
                        </mask>
                        <g id="Clip-2"></g>
                        <path d="M58.9469354,22.9160123 C57.9815815,19.0060431 56.2799815,15.4001354 53.8893969,12.1981662 L50.9307508,14.4070892 C53.0246585,17.2117662 54.5157969,20.3723815 55.3622585,23.8010585 C57.0407815,30.5993354 55.9714892,37.6444431 52.3513662,43.6383508 C48.7312431,49.6322585 42.9935815,53.8577354 36.1954892,55.5364431 C34.0941969,56.0550277 31.9757354,56.3070277 29.8785046,56.3070277 C21.7188738,56.3064738 13.90152,52.4912123 8.87185846,45.7368738 L5.91044308,47.9421046 C11.6484738,55.6477662 20.5652123,60.0004431 29.8742585,60.0000738 C32.2661354,60.0000738 34.6844123,59.7126277 37.0805354,59.1209354 C44.8362277,57.2061046 51.3819508,52.3854277 55.5119815,45.5470892 C59.6420123,38.7089354 60.8619508,30.6717046 58.9469354,22.9160123" id="Fill-1" fill="#37CED5" mask="url(#mask-2)"></path>
                    </g>
                    <g id="Group-6">
                        <mask id="mask-4" fill="white">
                            <use xlink:href="#path-3"></use>
                        </mask>
                        <g id="Clip-5"></g>
                        <path d="M4.46016,36.3694154 C0.995113846,22.3356923 9.59339077,8.09944615 23.6269292,4.63421538 C32.25216,2.50449231 41.28816,4.85298462 47.7986215,10.9161231 L50.3149292,8.21427692 C42.88896,1.29858462 32.5811446,-1.37963077 22.7418831,1.04953846 C6.73166769,5.00270769 -3.07768615,21.2442462 0.875483077,37.2546462 C1.34126769,39.1412308 1.98982154,40.9835077 2.80249846,42.7308923 L6.15031385,41.1734769 C5.43769846,39.6417231 4.86908308,38.0252308 4.46016,36.3694154" id="Fill-4" fill="#37CED5" mask="url(#mask-4)"></path>
                    </g>
                    <path d="M13.6040308,16.2038769 C10.0350462,20.3953846 8.23172308,25.7320615 8.52655385,31.2312 C9.13763077,42.6347077 18.6100615,51.5012308 29.8983692,51.5012308 C30.2823692,51.5012308 30.6691385,51.4908923 31.0572,51.4700308 C35.5924615,51.2270769 39.8506154,49.5926769 43.3714154,46.7435077 L41.0487692,43.8732923 C38.1364615,46.2299077 34.6130769,47.5818462 30.8594769,47.7830769 C21.0994154,48.3027692 12.7363385,40.7920615 12.2135077,31.0336615 C11.9696308,26.4827077 13.4616923,22.0661538 16.4153538,18.5977846 L13.6040308,16.2038769 Z" id="Fill-7" fill="#37CED5"></path>
                    <path d="M47.9342769,41.6542154 C50.3758154,37.8574154 51.5381538,33.4604308 51.2959385,28.9392 C50.664,17.1476308 40.5553846,8.07083077 28.7651077,8.70055385 C25.4584615,8.87778462 22.3270154,9.78258462 19.4577231,11.3896615 L21.2619692,14.6110154 C23.6342769,13.2825231 26.2251692,12.5344615 28.9628308,12.3876923 C38.7204923,11.8600615 47.0859692,19.3783385 47.6089846,29.1369231 C47.8094769,32.8788923 46.848,36.5167385 44.8286769,39.6574154 L47.9342769,41.6542154 Z" id="Fill-9" fill="#37CED5"></path>
                    <path d="M27.8743015,21.8359938 C31.5079015,20.9387631 35.2487631,22.4856554 37.1831631,25.6848554 L40.3428554,23.7744554 C37.5673477,19.1839938 32.2011323,16.9645477 26.9892554,18.2513169 C20.4640246,19.86264 16.4661785,26.4820246 18.0773169,33.0072554 C18.8578708,36.1680554 20.8225477,38.8359323 23.6095015,40.5190708 C25.5357785,41.6825169 27.6954092,42.2791938 29.8893785,42.2791938 C30.8696862,42.2791938 31.8570092,42.1601169 32.8330708,41.9190092 C38.0587938,40.6289169 41.7760246,36.1545785 42.0832246,30.7852246 L38.3970092,30.5742092 C38.1828554,34.3163631 35.5912246,37.4348862 31.9480246,38.3345169 C29.74464,38.8783938 27.4613169,38.5318708 25.5184246,37.35864 C23.5755323,36.1852246 22.2060554,34.3254092 21.6619938,32.1220246 C21.1179323,29.91864 21.4644554,27.6353169 22.6378708,25.6924246 C23.8112862,23.7497169 25.6709169,22.3800554 27.8743015,21.8359938" id="Fill-11" fill="#37CED5"></path>
                </g>
            </g>
        </g>
    </g>
</svg>