<?xml version="1.0" encoding="UTF-8"?>
<svg width="177px" height="38px" viewBox="0 0 177 38" version="1.1" xmlns="http://www.w3.org/2000/svg" xmlns:xlink="http://www.w3.org/1999/xlink">
    <!-- Generator: Sketch 42 (36781) - http://www.bohemiancoding.com/sketch -->
    <title>Page 1</title>
    <desc>Created with Sketch.</desc>
    <defs></defs>
    <g id="Page-1-Copy" stroke="none" stroke-width="1" fill="none" fill-rule="evenodd">
        <g id="About" transform="translate(-707.000000, -1168.000000)" fill="#000000">
            <g id="Clients" transform="translate(206.000000, 962.000000)">
                <g id="Mike-Pero" transform="translate(501.000000, 206.000000)">
                    <g id="Page-1">
                        <path d="M107.739217,32.7989646 C107.679285,34.0679882 107.816237,36.29383 107.056389,36.7976178 C106.116827,37.4208502 104.829032,36.8439983 104.326086,36.1148737 C103.713039,35.2274158 103.843258,33.8165572 103.935934,32.8966077 C104.403695,28.2339815 104.826254,24.9466077 104.033325,20.0244697 C101.60681,20.6684091 99.1899747,19.720766 100.132652,17.3913889 C100.495951,16.4939141 101.615564,16.3197559 103.058072,16.3185774 C102.522551,13.3780051 105.172971,11.3990488 106.95883,13.7829714 C107.009335,14.8089815 106.786103,15.5608333 106.861524,16.6109175 C112.520362,17.1301936 119.323729,17.195766 120.611524,13.0026684 C121.19452,11.1059512 119.815143,9.12219697 118.466322,8.02935185 C115.67112,5.76504209 110.70319,4.21899832 106.471709,3.2508165 C101.70681,2.16100168 96.2625337,1.79534512 92.4286111,3.93356061 C92.3070623,5.05510943 92.6627862,6.2815404 92.1360185,7.05435185 C91.411271,8.11655724 89.9116077,7.70005892 88.8202778,7.15165825 C87.3799579,-1.64219697 98.7480556,-0.18276936 105.398476,0.715547138 C111.418173,1.52842593 117.641237,2.54231481 121.782231,5.68903199 C123.767079,7.19753367 125.739638,9.60325758 125.78021,12.3202609 C125.81851,14.8582239 124.234672,16.7763215 122.562197,17.7814562 C118.766069,20.0619276 112.629537,19.1866751 106.95883,19.5367593 C107.412281,23.6812037 107.970783,27.9016582 107.739217,32.7989646 Z" id="Fill-1"></path>
                        <path d="M15.0954966,24.2174747 C13.5783249,25.4760606 12.7671296,26.2689057 11.4874158,27.4355724 C10.3748737,28.4501347 8.65559764,30.9068687 6.02638889,30.2641077 C2.63876263,29.4350673 1.24659091,23.4848148 0.467718855,19.5367508 C0.150378788,17.9279966 -0.299789562,15.9213468 0.370328283,14.8556061 C0.957786195,13.9215993 3.02933502,13.8705051 3.68590067,14.6608249 C4.40972222,15.531532 4.12984007,20.3170539 4.36847643,21.5845623 C4.68590067,23.2703367 5.39414983,26.4800168 6.90399832,26.5580471 C7.98009259,26.613771 9.81308923,24.4290909 10.5122475,23.7299327 C11.8946549,22.347862 12.9559343,19.9705892 15.1931397,20.1218519 C16.2359848,20.1923906 17.4502946,21.3317003 18.3136785,22.0723569 C19.2184764,22.8475253 19.9645202,24.1856566 21.044234,24.4126768 C22.5714226,24.7337205 24.0404461,23.7865825 25.2376684,23.2423064 C26.8078704,22.5288384 28.502399,21.0544276 30.6987795,21.6822054 C32.2311027,22.12 33.090362,23.9098148 34.0143519,24.9003872 C34.5768098,25.503165 36.8932239,26.9102357 36.7449074,28.6061953 C36.6957492,29.1675589 36.2025673,29.7743771 35.6722643,29.8738721 C34.1138468,30.1658754 32.9447391,28.3168013 32.3566077,27.7284175 C31.8715909,27.2431481 30.4169613,25.2899495 29.5284091,25.1926431 C28.710564,25.1032492 26.3785774,26.6743771 25.6277357,27.0455892 C24.4179714,27.6437374 23.0055976,28.6199158 21.4343855,28.5086364 C20.0318603,28.4088889 18.8650253,27.4110774 17.9236111,26.6555219 C16.913931,25.8451684 16.1971801,25.1170539 15.0954966,24.2174747" id="Fill-3"></path>
                        <path d="M38.5977273,14.6608081 C38.7654882,14.6267172 39.081734,14.5236869 39.3780303,14.6608081 C40.1399832,15.0127441 40.8758418,16.7388384 40.0606061,17.6837879 C39.201936,18.678569 36.6665825,18.0891751 36.9401515,16.0257912 C37.0188552,15.431431 37.4909933,14.8844613 38.5977273,14.6608081" id="Fill-5"></path>
                        <path d="M42.2061616,19.4392256 C44.3482492,19.5224747 43.8256061,23.0159091 43.766431,25.2903199 C43.7240067,26.9141414 43.9417677,28.3280303 43.5713973,28.9962963 C43.2006061,29.6644781 41.6773737,29.9127104 41.0357912,29.4835859 C40.5013636,29.1263468 40.437138,27.848064 40.4505219,27.4356061 C40.4997643,25.9568182 41.156835,23.9773569 41.0357912,22.7548822 C40.9665993,22.0559764 39.8886532,21.1097643 40.4505219,20.0244949 C40.7008586,19.5411616 41.5908418,19.4151515 42.2061616,19.4392256" id="Fill-7"></path>
                        <path d="M79.1660101,22.657399 C78.7226599,23.5470455 77.5180303,23.6752441 76.6302357,24.1201094 C76.2597811,22.8539478 78.1686195,21.6770118 79.1660101,22.657399 M83.6517003,27.2406481 C81.3585185,27.8065572 79.0888215,27.9152273 78.0931987,26.2654798 C79.7078451,25.455463 82.1786364,24.7967929 81.9939562,22.462197 C81.8206397,20.2711195 78.3215657,19.445867 76.1427778,20.5118603 C74.3896633,21.3696886 73.8535522,23.2505808 73.2174411,24.9977189 C68.3206397,26.6548737 60.0985859,28.7074832 55.8586027,25.3877862 C57.1931145,24.2696886 58.0048148,22.9719613 60.5395791,23.1447727 C61.7514478,23.2275168 63.8562458,24.1667424 64.9281313,23.3398064 C65.3951347,22.9796212 65.8006902,21.6386279 65.4155051,20.7069781 C65.1966498,20.1767593 64.3415152,19.7419108 63.660202,19.6340825 C59.321734,18.9472138 55.8176094,22.2569781 53.5182828,23.5348401 C53.6931145,20.2505808 53.6159259,15.8567256 53.6159259,11.9303788 C53.6159259,9.36219697 53.9095286,7.1955303 50.9827609,7.73686027 C49.8123064,7.95327441 49.360202,8.96573232 49.5201347,10.1748232 C49.6687037,11.2999916 50.7576768,12.0478872 50.8853704,12.6127862 C51.2465657,14.2137121 50.8860438,16.8810522 50.8853704,18.7566414 C50.8838552,22.7876178 50.9843603,27.0106818 50.7877273,31.1413215 C50.7117172,32.7372811 50.2756902,35.7423316 50.8853704,36.8949411 C51.5525421,38.1567256 53.3187037,38.2805471 54.0060774,37.1879545 C55.4634848,34.8691835 52.7118855,31.6449411 53.5182828,28.4108502 C59.2879798,31.7100926 68.5732492,28.8111869 74.1925253,26.9483081 C75.5744276,29.5853451 78.6894108,30.4777694 82.5790572,30.1662374 C84.2722391,30.0305471 87.4957239,29.7000758 87.4549832,27.9230556 C87.4112121,25.994436 85.0637374,26.8925 83.6517003,27.2406481" id="Fill-9"></path>
                        <path d="M166.348131,26.1679714 C165.924983,26.275968 165.271616,26.3514731 164.98298,26.0704966 C164.524394,24.9546717 165.490976,24.0120791 166.641145,24.5101431 C166.995606,25.0177189 166.694091,25.8041667 166.348131,26.1679714 M125.097626,23.7299242 C125.120101,22.5306818 125.798636,21.531271 127.047795,21.8770623 C126.492997,22.5315236 125.890556,23.6359007 125.097626,23.7299242 M171.516902,22.852399 C170.635505,22.5039141 169.916061,21.8231902 169.079276,21.4869108 C167.506549,20.8558502 164.84367,20.482702 165.275741,22.4622475 C164.311852,22.3621633 164.334411,21.7215909 163.423047,21.682197 C161.861431,21.6145202 160.71303,23.3686448 160.009411,24.4126684 C153.963451,25.5552609 148.318838,19.0462542 144.699226,24.4126684 C144.103434,23.9571128 143.678098,23.5791667 143.041397,23.3397727 C137.002761,21.0716751 132.374646,28.2310185 126.268165,25.8756313 C126.832222,24.4359007 130.220774,23.5713384 129.77835,20.9996212 C129.641061,20.1986111 128.592997,19.6622475 127.828013,19.5367424 C124.502761,18.9906145 121.994933,21.5136785 121.977088,24.2174663 C121.95537,27.5005471 125.320522,29.2703283 128.12069,29.1909512 C132.725488,29.0606481 137.340808,24.3513047 142.261431,26.460564 C143.937694,27.1794192 144.263872,29.0764731 145.283822,31.1412879 C145.606212,31.0805135 146.518165,31.1828704 147.13702,31.1412879 L147.13702,26.1679714 C148.978855,24.0907828 151.848721,26.3125842 155.03601,26.5580387 C156.868923,26.6992845 158.350236,26.5176347 160.107222,26.1679714 C160.36202,29.3680556 165.055791,29.7410354 167.811178,28.4109007 C169.42431,27.6322811 170.049394,26.1796717 170.736936,25.1926347 C172.192071,25.1344697 175.790724,26.7412037 176.490471,25.2902778 L176.490471,24.8027357 C175.86968,22.977399 173.499562,23.6364057 171.516902,22.852399" id="Fill-11"></path>
                    </g>
                </g>
            </g>
        </g>
    </g>
</svg>