<?xml version="1.0" encoding="UTF-8"?>
<svg width="135px" height="40px" viewBox="0 0 135 40" version="1.1" xmlns="http://www.w3.org/2000/svg" xmlns:xlink="http://www.w3.org/1999/xlink">
    <!-- Generator: Sketch 42 (36781) - http://www.bohemiancoding.com/sketch -->
    <title>twilio_logo</title>
    <desc>Created with Sketch.</desc>
    <defs></defs>
    <g id="Page-1-Copy" stroke="none" stroke-width="1" fill="none" fill-rule="evenodd">
        <g id="About" transform="translate(-208.000000, -1043.000000)" fill="#EE3248">
            <g id="Clients" transform="translate(206.000000, 962.000000)">
                <g id="Twilio" transform="translate(1.000000, 81.000000)">
                    <g id="twilio_logo" transform="translate(1.000000, 0.000000)">
                        <g id="Layer_1">
                            <g id="XMLID_425_">
                                <g id="XMLID_441_" transform="translate(44.800000, 7.800000)">
                                    <path d="M48.9,0.02 L41.82,0.02 C41.62,0.02 41.46,0.18 41.46,0.38 L41.46,4.48 C41.46,4.68 41.62,4.84 41.82,4.84 L48.9,4.84 C49.1,4.84 49.26,4.68 49.26,4.48 L49.26,0.38 C49.26,0.18 49.1,0.02 48.9,0.02 Z" id="XMLID_355_"></path>
                                    <path d="M48.78,6.12 L35.2,6.12 C35,6.12 34.8,6.28 34.76,6.46 L33.02,13.14 L33.02,13.14 L32.92,13.48 L30.8,6.4 C30.74,6.22 30.54,6.06 30.34,6.06 L25.06,6.06 C24.86,6.06 24.66,6.22 24.6,6.4 L22.62,13.08 L22.62,13.08 L22.52,13.42 L22.44,13.08 L22.44,13.08 L21.6,9.78 L20.76,6.48 C20.72,6.3 20.52,6.14 20.32,6.14 L9.64,6.14 L9.64,0.4 C9.64,0.2 9.38,6.44623244e-15 9.18,0.08 L2.48,2.18 C2.28,2.24 2.12,2.34 2.12,2.54 L2.12,6.16 L0.36,6.16 C0.16,6.16 1.13686838e-14,6.32 1.13686838e-14,6.52 L1.13686838e-14,11.62 C1.13686838e-14,11.82 0.16,11.98 0.36,11.98 L2.12,11.98 L2.12,18.22 C2.12,22.64 4.5,24.68 8.96,24.68 C10.78,24.68 12.58,24.28 13.76,23.66 L13.76,23.3 L13.76,18.32 C13.76,18.04 13.54,17.98 13.38,18.04 C12.66,18.34 12.1,18.42 11.46,18.42 C10.26,18.42 9.64,17.92 9.64,16.56 L9.64,11.98 L13.46,11.98 C13.66,11.98 13.82,11.82 13.82,11.62 L13.82,7.32 L18.84,24.06 C18.9,24.24 19.1,24.4 19.3,24.4 L24.86,24.4 C25.06,24.4 25.26,24.24 25.32,24.06 L27.7,16.64 L28.92,20.52 L30.02,24.06 C30.08,24.24 30.28,24.4 30.48,24.4 L36.06,24.4 C36.26,24.4 36.46,24.24 36.52,24.06 L41.62,7.26 L41.62,24.04 C41.62,24.24 41.78,24.4 41.98,24.4 L48.8,24.4 C49,24.4 49.16,24.24 49.16,24.04 L49.16,6.5 C49.14,6.3 48.98,6.12 48.78,6.12 Z" id="XMLID_354_"></path>
                                    <path d="M57.74,0.02 L50.92,0.02 C50.72,0.02 50.56,0.18 50.56,0.38 L50.56,24.02 C50.56,24.22 50.72,24.38 50.92,24.38 L57.74,24.38 C57.94,24.38 58.1,24.22 58.1,24.02 L58.1,0.38 C58.1,0.18 57.94,0.02 57.74,0.02 Z" id="XMLID_353_"></path>
                                    <path d="M66.84,0.02 L59.76,0.02 C59.56,0.02 59.4,0.18 59.4,0.38 L59.4,4.48 C59.4,4.68 59.56,4.84 59.76,4.84 L66.84,4.84 C67.04,4.84 67.2,4.68 67.2,4.48 L67.2,0.38 C67.2,0.18 67.04,0.02 66.84,0.02 Z" id="XMLID_352_"></path>
                                    <path d="M66.7,6.12 L59.88,6.12 C59.68,6.12 59.52,6.28 59.52,6.48 L59.52,24.02 C59.52,24.22 59.68,24.38 59.88,24.38 L66.7,24.38 C66.9,24.38 67.06,24.22 67.06,24.02 L67.06,6.48 C67.06,6.3 66.9,6.12 66.7,6.12 Z" id="XMLID_351_"></path>
                                    <path d="M77.98,5.7 C72.02,5.7 67.76,10.08 67.76,15.18 L67.76,15.24 C67.76,20.34 71.98,24.66 77.9,24.66 C83.86,24.66 88.12,20.28 88.12,15.18 L88.12,15.12 C88.12,10 83.92,5.7 77.98,5.7 Z M80.9,15.24 C80.9,16.96 79.68,18.4 77.98,18.4 C76.32,18.4 75,16.98 75,15.18 L75,15.12 C75,13.4 76.22,11.96 77.92,11.96 C79.58,11.96 80.9,13.38 80.9,15.18 L80.9,15.24 Z" id="XMLID_442_"></path>
                                </g>
                                <g id="XMLID_426_">
                                    <path d="M20,0 C8.96,0 0,8.96 0,20 C0,31.04 8.96,40 20,40 C31.04,40 40,31.04 40,20 C40,8.96 31.04,0 20,0 Z M20,34.72 C11.86,34.72 5.28,28.12 5.28,20 C5.28,11.86 11.88,5.28 20,5.28 C28.14,5.28 34.72,11.88 34.72,20 C34.72,28.14 28.14,34.72 20,34.72 Z" id="XMLID_434_"></path>
                                    <ellipse id="XMLID_346_" cx="24.98" cy="15.02" rx="4.16" ry="4.16"></ellipse>
                                    <ellipse id="XMLID_345_" cx="24.98" cy="24.98" rx="4.16" ry="4.16"></ellipse>
                                    <ellipse id="XMLID_344_" cx="15.02" cy="24.98" rx="4.16" ry="4.16"></ellipse>
                                    <circle id="XMLID_342_" cx="15.02" cy="15.02" r="4.16"></circle>
                                </g>
                            </g>
                            <g id="Group" transform="translate(132.200000, 14.400000)">
                                <polygon id="Shape" points="0.62 0.28 0.62 1.32 0.46 1.32 0.46 0.28 0.08 0.28 0.08 0.14 1 0.14 1.02 0.28"></polygon>
                                <polygon id="Shape" points="2.32 1.34 2.24 0.38 1.86 1.34 1.74 1.34 1.36 0.38 1.28 1.34 1.12 1.34 1.22 0.14 1.42 0.14 1.8 1.12 2.18 0.14 2.38 0.14 2.48 1.34"></polygon>
                            </g>
                        </g>
                    </g>
                </g>
            </g>
        </g>
    </g>
</svg>